<svg xmlns="http://www.w3.org/2000/svg" xmlns:xlink="http://www.w3.org/1999/xlink" width="1616.773" height="675.077" viewBox="0 0 1616.773 675.077"><defs><clipPath id="a"><rect width="1612.387" height="675.077" transform="translate(0 24)" fill="none"/></clipPath><clipPath id="b"><rect width="1609.617" height="671.924" transform="translate(0 27.154)" fill="none"/></clipPath><clipPath id="c"><rect width="121.279" height="95.532" fill="none"/></clipPath><clipPath id="d"><rect width="183.195" height="81.393" fill="none"/></clipPath><clipPath id="e"><rect width="36.836" height="22.088" fill="none"/></clipPath><clipPath id="f"><rect width="137.614" height="44.275" fill="none"/></clipPath><clipPath id="g"><rect width="21.81" height="10.52" fill="none"/></clipPath><clipPath id="h"><rect width="23.096" height="25.771" fill="none"/></clipPath><clipPath id="i"><rect width="21.201" height="24.225" fill="none"/></clipPath><clipPath id="j"><rect width="18.941" height="21.531" fill="none"/></clipPath><clipPath id="k"><rect width="17.55" height="22.597" fill="none"/></clipPath><clipPath id="l"><rect width="11.823" height="25.453" fill="none"/></clipPath></defs><g transform="translate(-30.613 -24)"><g transform="translate(35)" clip-path="url(#a)"><g transform="translate(1.947 -0.001)"><g clip-path="url(#b)"><path d="M43.732,697.631S-73.19,520.975,14.185,336.128c82.223-173.948,318.659-61.833,472-200C719-73.628,1383.394,35.651,1287.926,325.283c-49.48,150.114,201.907,220.038,117.792,372.671Z" transform="translate(90.501 0.002)" fill="#d6ebe9"/><path d="M1898.948,1005.481H1764.256a3.253,3.253,0,0,1-3.243-3.243V991.9a3.253,3.253,0,0,1,3.243-3.244h134.692a3.253,3.253,0,0,1,3.243,3.244v10.34a3.252,3.252,0,0,1-3.243,3.243" transform="translate(-792.455 -558.692)" fill="#c6e3e0"/><path d="M1801.582,1027.344l-1.677,9.845-24.278,142.524a1.2,1.2,0,0,1-1.27.874c-1.246,0-2.216-.827-2.085-1.779l19.255-145.951.729-5.513Z" transform="translate(-798.811 -580.556)" fill="#d9e7fc"/><path d="M1826.617,1027.344l-1.677,9.845c-1.152-3.922-8.377-4.332-8.377-4.332l.729-5.513Z" transform="translate(-823.847 -580.556)" fill="#bfd3ef"/><path d="M2034.194,1278.88a1.425,1.425,0,0,1-1.27-1.435L2008.647,1043.5l-1.047-10.081-.63-6.079h9.325l.729,9.05.57,7.1,18.685,232.465c.132,1.562-.838,2.921-2.085,2.921" transform="translate(-931.447 -580.556)" fill="#c6e3e0"/><path d="M2017.595,1043.494c-2.372-7.7-9.99-10.066-9.99-10.066s0,0,0-.005l-.63-6.079h9.325l.729,9.05Z" transform="translate(-931.447 -580.556)" fill="#89c6c0"/><g transform="translate(983.708 264.888)" opacity="0.5"><g clip-path="url(#c)"><path d="M1795.85,704.614s47.279-69.983,108.389-94.817c8.121-3.3,15.9,5.466,11.727,13.175q-.1.193-.215.389c-7.34,13.046-79,47.136-119.9,81.253" transform="translate(-1795.85 -609.082)" fill="#dfebfd"/></g></g><g transform="translate(968.078 297.983)" opacity="0.5"><g clip-path="url(#d)"><path d="M1759.91,766.575s86.041-73.6,172.286-81.353a9.951,9.951,0,0,1,10.829,8.441c.435,3.411-.814,7.748-5.921,12.9-13.619,13.725-114.546,31.576-177.193,60.016" transform="translate(-1759.91 -685.181)" fill="#dfebfd"/></g></g><path d="M1039.979,488.215s-33.381-39.042-38.053-78.889a5.7,5.7,0,0,1,9.622-4.744c.063.062.128.124.192.189,6.461,6.414,14.855,53.942,28.239,83.445" transform="translate(-375.151 -229.67)" fill="#89c6c0"/><path d="M1081.041,472.192s-29.232-62.354-19.821-114.174a6.052,6.052,0,0,1,6.7-4.983c2.07.3,4.411,1.731,6.6,5.558,5.843,10.205-.021,72.267,6.517,113.6" transform="translate(-407.628 -201.415)" fill="#89c6c0"/><path d="M1295.388,239.2c-14.746-15.994-43.138,6.2-43.138,6.2s-4.358,43.706-10.162,47.717-3.57-38.1-3.57-38.1c-12.633,5.1-35.6,35.814-35.6,35.814s21.75,37.009,15.138,39.468-17.586-33.753-17.586-33.753c-9.819,9.556-13.607,28.794-13.607,28.794-2.057,29.189,35.53,30.322,35.53,30.322s7.261,12.989,7,32.364h0a50.666,50.666,0,0,0,.222,9.474l3.173-1.653q-.276-1.479-.422-2.912a.022.022,0,0,1,0-.017c0-.014,0-.028,0-.041-.037-.6-.089-1.464-.143-2.517v0s0,0,0-.005c-.019-2.4-.094-4.146-.208-5.374a.03.03,0,0,0,0-.011c-.2-7.471-.058-17.412,1.885-20.494a6.933,6.933,0,0,1-1.438-1.1l1.438,1.1c11.5,8.808,39.663-3.4,53.177-14.389s4.694-11.819-7.062-14.5-27.874,8.039-34.333,7.951-.5-6.644,9.989-11.124,20.79,2.98,37.893-3.958S1307.1,284.4,1307.1,284.4c-9.432,9.354-32.84,13.658-35.637,10.183s27.278-18.652,31.327-22.242,7.345-17.146-7.4-33.14" transform="translate(-458.217 -135.795)" fill="#c6e3e0"/><path d="M1608.623,285.53c-21.8-23.651-63.789,9.166-63.789,9.166s-6.443,64.628-15.025,70.558-5.28-56.331-5.28-56.331c-18.68,7.545-52.642,52.958-52.642,52.958s32.161,54.725,22.384,58.36-26.005-49.909-26.005-49.909c-14.52,14.13-20.121,42.578-20.121,42.578-3.042,43.161,52.539,44.838,52.539,44.838s10.736,19.206,10.346,47.856h0a74.847,74.847,0,0,0,.328,14.009l4.692-2.445c-.272-1.458-.484-2.894-.624-4.306a.029.029,0,0,1,0-.026c0-.02,0-.041-.005-.061-.057-.892-.132-2.164-.212-3.721v-.006s0,0,0-.008c-.03-3.553-.14-6.13-.307-7.946a.078.078,0,0,0,0-.016c-.294-11.046-.087-25.748,2.786-30.3a10.266,10.266,0,0,1-2.125-1.629l2.125,1.629c17,13.025,58.65-5.03,78.632-21.276s6.941-17.475-10.442-21.44-41.219,11.887-50.768,11.757-.743-9.825,14.77-16.449,30.743,4.405,56.033-5.854,20.033-65.144,20.033-65.144c-13.946,13.831-48.559,20.2-52.7,15.056s40.336-27.581,46.323-32.888,10.861-25.353-10.945-49" transform="translate(-592.216 -156.512)" fill="#89c6c0"/><path d="M401.639,629.055c-.035-36,59.4-40.909,59.4-40.909s54.38,48.237,65.937,46.6-38.44-50.32-38.44-50.32c21.088-7.984,83.5,3.558,83.5,3.558s15.122,69.415,25.92,64.979-16.525-60.781-16.525-60.781c22.668.589,48.878,19.723,48.878,19.723,35.279,33.173-9.141,76.761-9.141,76.761s5.759,23.943,27.838,47.2h0a83.8,83.8,0,0,1,10.369,11.766l-5.714,1.554q-1.325-2.108-2.756-4.014a.036.036,0,0,0-.018-.023l-.042-.055c-.631-.777-1.535-1.88-2.652-3.22l0,0s0,0-.006-.006c-2.675-2.943-4.54-5.147-5.782-6.767a.079.079,0,0,1-.01-.016c-8.147-9.3-19.483-21.233-25.306-22.8a11.473,11.473,0,0,0,.511-2.953c-.163.942-.333,1.924-.511,2.953-4.083,23.618-52.037,40.407-80.8,42.226s-18.979-9.1-7.7-25.557,42.914-21.531,50.666-28.89-6.851-8.642-24.635-2.306-21.928,26.97-50.511,37.741-65.944-38.341-65.944-38.341c21.97.78,55.259-20.276,54.757-27.642s-54.106,7.958-63.059,8.142-28.183-12.595-28.219-48.6" transform="translate(-61.265 -336.457)" fill="#89c6c0"/><path d="M1268.915,719.464a245.9,245.9,0,0,1-3.963,44.092c-20.762,114.136-120.67,200.672-240.8,200.672-99.913,0-185.837-59.856-223.874-145.667a242.322,242.322,0,0,1-12.468-35.2A244.807,244.807,0,0,1,1024.154,474.7q9.337,0,18.5.694a245.118,245.118,0,0,1,188.371,113.2,243.613,243.613,0,0,1,37.89,130.875" transform="translate(-237.733 -268.251)" fill="#699ff0"/><path d="M1279.861,867.462a245.865,245.865,0,0,1-3.963,44.092,242.692,242.692,0,0,1-11.939,42.865c-35.064,92.251-124.3,157.807-228.858,157.807a243.7,243.7,0,0,1-115.269-28.785q-4.742-2.54-9.364-5.276A245.69,245.69,0,0,1,811.227,966.56a242.337,242.337,0,0,1-12.467-35.2,422.315,422.315,0,0,0,123.616,10.354c9.086-.573,18.432-1.465,28.007-2.727a407.767,407.767,0,0,0,107.723-29.574c89.071-38.195,149-114.669,183.866-172.823a243.612,243.612,0,0,1,37.89,130.875" transform="translate(-248.681 -416.248)" fill="#4888e5"/><path d="M1559.183,832.205a245.821,245.821,0,0,1-3.964,44.093c-9.964-1.443-22.937-2.852-30.946-1.91-14.428,1.7-28.857,31.4-58.563,32.571s-66.2-21.537-105.245-6.259-59.413-.849-66.2-11.883,16.975-36.5,14.823-47.53,3-48.379,36.1-48.379,46.807-18.092,52.623-24.614c16.672-18.7,29.706-1.7,43.286-16.126s-10.185-39.891,0-56.867,60.266-21.1,60.266-21.1a243.794,243.794,0,0,1,57.821,158" transform="translate(-528 -380.993)" fill="#a8d29f"/><path d="M908.085,838.105c-11.882,16.733,4.244,51.532-5.941,69.355s-29.706,14.43-44.135,22.917c-12.528,7.367-17.548,37.765-57.728,48.429a245.944,245.944,0,0,1-15.218-151.752,74.776,74.776,0,0,1,34.752-19.747c48.378-12.731,49.581-48.338,69.109-49.018,47.547-1.654,31.044,63.078,19.161,79.815" transform="translate(-237.732 -428.495)" fill="#a8d29f"/><path d="M1376.973,727.312s-29.707-5.942-45.832,4.244-48.8,28.433-44.56,39.043,35.224,18.672,47.955,18.248,4.064-25.594,65.778-18.248c15.644,1.862,15.869-32.518-23.34-43.286" transform="translate(-524.138 -410.033)" fill="#a8d29f"/><path d="M1161.07,478.631c-15.051,26.345-42.6,59.712-89.111,71.768a230.684,230.684,0,0,1-128.045-3.865A244.425,244.425,0,0,1,1117.13,474.7q9.337,0,18.5.694a246.177,246.177,0,0,1,25.441,3.242" transform="translate(-330.708 -268.251)" fill="#7db2ff"/><path d="M1409.114,1237.473c-35.064,92.251-124.3,157.807-228.858,157.807a243.691,243.691,0,0,1-115.268-28.785q-4.742-2.54-9.364-5.276c63.178-4.608,220.824-26.193,353.49-123.746" transform="translate(-393.837 -699.301)" fill="#3b7fd1"/><path d="M1007.437,1278.674c-12.987,9.471-16.082,38.58-24.389,42.609-4.17,2.025-10.581,9.311-15.933,16.059a245.78,245.78,0,0,1-84.687-74.786c14.693-10.2,42.243-27.42,61.356-27.89,0,0,9.552-.112,16.632-19.516,2.79-7.649,5.782-14.433,9.243-19.538,5.329-7.855,11.769-11.737,20.313-8.674a14.758,14.758,0,0,1,7.693,5.946c4.944,7.363,5.253,19.055,19.176,30.327,18.808,15.225,3.582,45.991-9.4,55.463" transform="translate(-295.963 -670.151)" fill="#a8d29f"/><path d="M1520.189,572.812s-2.558-46-59.146-54c0,0-2.087,54,59.146,54" transform="translate(-622.936 -293.182)" fill="#a8d29f"/><path d="M1591.173,581.042s45.38,8.576,63.748-45.544c0,0-52.378-14.624-63.748,45.544" transform="translate(-696.478 -301.728)" fill="#a8d29f"/><path d="M1581.252,541.218s20.137-16.3,3.65-43.8c0,0-25.264,17.1-3.65,43.8" transform="translate(-685.931 -281.093)" fill="#a8d29f"/><path d="M1583.692,640.409s-6.8,29.51-5.619,39.909h5.619s-2.169-27.465,3.164-41.331Z" transform="translate(-688.997 -361.094)" fill="#a8d29f"/><path d="M1698.878,775.455s-1.21-21.768-27.987-25.553c0,0-.989,25.553,27.987,25.553" transform="translate(-741.525 -423.772)" fill="#82b378"/><path d="M1732.468,779.349s21.473,4.058,30.165-21.551c0,0-24.784-6.92-30.165,21.551" transform="translate(-776.324 -427.816)" fill="#82b378"/><path d="M1727.773,760.505s9.528-7.714,1.727-20.725c0,0-11.954,8.092-1.727,20.725" transform="translate(-771.333 -418.052)" fill="#82b378"/><path d="M1728.928,807.441s-3.219,13.964-2.659,18.886h2.659s-1.026-13,1.5-19.558Z" transform="translate(-772.784 -455.907)" fill="#82b378"/><path d="M1498.073,667.952s-.76-13.668-17.573-16.045c0,0-.621,16.045,17.573,16.045" transform="translate(-633.934 -368.395)" fill="#a8d29f"/><path d="M1519.164,670.4s13.483,2.548,18.94-13.532c0,0-15.562-4.345-18.94,13.532" transform="translate(-655.785 -370.934)" fill="#a8d29f"/><path d="M1516.215,658.565s5.983-4.843,1.085-13.013c0,0-7.507,5.08-1.085,13.013" transform="translate(-652.65 -364.804)" fill="#a8d29f"/><path d="M1516.941,688.036s-2.021,8.768-1.67,11.858h1.67s-.644-8.161.94-12.281Z" transform="translate(-653.562 -388.573)" fill="#a8d29f"/><path d="M1814.8,615.938s-4.357-.85-5.353,0-5.722,5.651-4.71,7.227,5.863-1.3,6.872-1.577,3.828-1.373,3.828-1.373Z" transform="translate(-817.084 -347.855)" fill="#ffb27d"/><path d="M1934.515,782.044l4.67,1.739s20.286-28.136,22.785-52.891a37.616,37.616,0,0,0-.667-12.655s.2-1.133.544-3.135c.161-.934.359-2.059.584-3.348.66-3.779,1.568-8.949,2.6-14.837,2.387-13.548,5.479-30.867,7.881-43.6l-1.258-.4-13.616-4.392-2.814-8.938-10.139-2.669s-2.266,4.431-4.29,25.36c-.374,2.746-.714,5.773-.969,9.056a179.2,179.2,0,0,0,.965,36.663q.7,5.457,1.781,11.253a50.194,50.194,0,0,1,.389,11.111c-1.022,20.237-8.45,51.686-8.45,51.686" transform="translate(-890.502 -359.923)" fill="#35488b"/><path d="M1946.738,671.331l22.017,43.77c.16-.934.359-2.059.583-3.348.659-3.779,1.567-8.949,2.6-14.837,2.387-13.548,5.479-30.867,7.882-43.6l-1.258-.4-13.616-4.393-2.815-8.938L1952,636.914s-2.265,4.431-4.29,25.361c-.374,2.745-.713,5.773-.969,9.056" transform="translate(-897.409 -359.922)" fill="#2c3a64"/><path d="M1969.009,635.916l.51-4.371c8.539,2.268,31.354-6.337,31.354-6.337s8.272,7.271,7.186,24.7c-.531,8.508-1.5,44.659-2.509,55.357-.367,3.877-.687,6.636-.817,7.738a.019.019,0,0,0,0,.01,1.523,1.523,0,0,0,.248.947,50.18,50.18,0,0,1,3.733,7.851c9.927,26.452-1.53,59.028-1.53,59.028l-2.972-1.2s-6.519-36.253-11.815-52.269a31.739,31.739,0,0,0-2.551-6.127c-2.3-3.717-4.44-9.79-6.38-17.014-3.667-13.657-6.618-31.423-8.581-45.136-.271.013-5.872-23.181-5.872-23.181" transform="translate(-909.994 -353.307)" fill="#35488b"/><path d="M1828.058,553.579l.636,4.277s.282,0,.778-.035c1.555-.107,5.337-.318,9.614-.778,6.433-.635,14.067-1.767,17.107-3.64,4.63-2.828,12.229-11.487,17.178-20.147a5.666,5.666,0,0,0,.354-.636c2.58-4.6,4.383-9.155,4.524-12.8a18.272,18.272,0,0,0-.6-5.8,14.791,14.791,0,0,0-2.615-5.231,2.657,2.657,0,0,0-.5-.6,12.2,12.2,0,0,0-3.359-2.862c-.848-.354-1.767.07-2.721,1.1v.035a16.213,16.213,0,0,0-2.439,3.605c-.035.035-.071.071-.071.106-.177.318-.353.671-.565,1.06a.881.881,0,0,0-.141.248q-.584,1.219-1.167,2.545c-4.347,9.472-8.977,23.823-12.831,28.1-1.661,1.838-9.26,5.443-15.3,8.129-4.348,1.909-7.882,3.322-7.882,3.322" transform="translate(-830.343 -285.496)" fill="#ffb27d"/><path d="M1931.5,486.632a26.586,26.586,0,0,0,9.833,2.3c14.681.8,18.013-12.065,18.62-20.606a12.3,12.3,0,0,0-5.037-.637c-1.042.057-2.128.164-3.023.275-1.8-.938-5.023-5.495-6.887-13.117l-.633.294-10.593,4.98s1.125,3.447,1.956,6.745c.648,2.581,1.114,5.076.725,5.773-.835.339-1.335.553-1.335.553a.031.031,0,0,1,0,.011,72.637,72.637,0,0,0-3.622,13.426" transform="translate(-888.798 -257.037)" fill="#ffb27d"/><path d="M1921.456,512.587c.11.294.232.58.366.873,3.718,8.007,10.6,41.178,10.6,41.178-.98,5.964,44.819-1.171,44.938-6.6,1.613-5.758-5.724-15.009-9.861-19.649a13.188,13.188,0,0,1-1.387-1.868,13.024,13.024,0,0,1-1.877-5.476c-.813-7.7-.5-14.911-.571-19.3h0c-.808-.6-1.59-1.152-2.318-1.678a20.693,20.693,0,0,1-2.823-2.341,4.274,4.274,0,0,1-1.354-2.665,14.205,14.205,0,0,1,.057-2.234c.035-.355.08-.709.134-1.064a30.305,30.305,0,0,1,2.127-7.1c-3.939-1.594-10.943-.644-10.943-.644s.008.389.011,1.026c.023,2.559,0,9.129-.819,10.372-1.026,1.548-19.79,8.332-20.781,6.231-.977-2.067,1.7-11.748,1.8-12.114a.029.029,0,0,0,0-.011c-6.284,2.467-8.53,4.538-8.53,4.538,3.787,2.456-1.7,10.764,1.232,18.532" transform="translate(-882.426 -273.36)" fill="#f99746"/><path d="M1930.174,380.775c.023-.636.516-7.495,10.962-7.853,0,0-5.136.612-6.024,2.87,0,0,3.5-2.79,6.346-1.893s4.522,5.888,4.539,7.529-1.566,6.933-3.375,7.383a5.5,5.5,0,0,1-2.189,0,24.637,24.637,0,0,1,1.4,2.5c4.169,8.557-.13,16.919-3.659,16-2.264-.592-2.9,3.269-2.9,3.269l-21.988-17.8s8.075-16.711,16.888-12.008" transform="translate(-878.505 -210.739)" fill="#2c3a64"/><path d="M1936.742,460.51s1.126,3.444,1.956,6.745c6.192-1.727,8.073-8.236,8.637-11.724Z" transform="translate(-891.761 -257.422)" fill="#ed985f"/><path d="M1921.505,440.357s14.814-3.428,12.536-12.621-1.9-15.825-11.452-14.025-10.516,5.761-10.5,9.014,5.507,18.287,9.419,17.632" transform="translate(-877.827 -233.622)" fill="#ffb27d"/><path d="M1909.314,415.33c1.593-3.332,3.467-3.154,4.639-2.563a10.626,10.626,0,0,1,13.788-1.179,18.093,18.093,0,0,0,8.323,8.942s-2.277,2.33-8.872,2.279a10.856,10.856,0,0,1-5.883-2.215,35.466,35.466,0,0,0,7.724,5.761c-8.257-1.58-13.794-11.139-14.361-12.154a11.929,11.929,0,0,0-2.15,5.089c-.152,2.523.715,7.423-.729,7.608,0,0-4.867-6.571-2.478-11.567" transform="translate(-875.888 -231.445)" fill="#2c3a64"/><path d="M1914.891,507.462s-3.566,6.222-4.1,7.823c0,0,4.626-.178,6.493,3.38,0,0,.447-10.365-2.393-11.2" transform="translate(-877.095 -286.768)" fill="#f99746"/><path d="M1971.343,561.674c9.033-.1,16.682-9.476,21.357-16.972a13.019,13.019,0,0,1-1.877-5.476c-.812-7.7-.5-14.911-.572-19.3h0c-.808-.6-1.59-1.152-2.318-1.678a20.66,20.66,0,0,1-2.822-2.341c-7.4,12.5-26.016,45.895-13.769,45.765" transform="translate(-909.015 -291.542)" fill="#ed7d2b"/><path d="M1898.116,549.423l1.238,4.524s1.555-.283,4.029-.742c.742-.141,1.167-.247,1.167-.247,1.979-.389,4.348-.919,6.928-1.485h.035c4.418-1.06,9.367-2.332,13.538-3.747a37.183,37.183,0,0,0,7.21-3.216,4.3,4.3,0,0,0,.494-.354c4.135-3,9.049-11.84,12.866-21.313.53-1.308,1.025-2.615,1.52-3.888a96.684,96.684,0,0,0,4.029-13.431,38.048,38.048,0,0,0,.955-6.4,15.666,15.666,0,0,0,.035-1.8c-.071-10.25-5.161-11.664-5.161-11.664-.106-.035-.212-.07-.353-.106-.884-.141-1.8.459-2.757,1.626a32.109,32.109,0,0,0-3.782,6.68c-2.015,4.56-4.135,10.462-6.115,16.33-1.1,3.216-2.156,6.433-3.216,9.4-.6,1.8-1.2,3.5-1.767,5.054a48.74,48.74,0,0,1-2.969,6.892,17.116,17.116,0,0,1-4.348,3.923,158.186,158.186,0,0,1-14,8.695c-1.979,1.131-3.852,2.157-5.407,3-2.51,1.378-4.171,2.262-4.171,2.262" transform="translate(-869.933 -274.377)" fill="#ffb27d"/><path d="M1994.7,493.9c6.8-1.876,12.053,3.437,12.053,3.437-.085-10.233-5.179-11.634-5.179-11.634-2.049-.849-4.425,2.7-6.874,8.2" transform="translate(-924.511 -274.401)" fill="#f99746"/><path d="M2017.044,971.426h23.524a12.92,12.92,0,0,0-.665-6.3c-1.177-2.61-3.022-3.8-2.58-6.954a8.473,8.473,0,0,1-7.332,2.8c-.417.676-2.69,4.291-4.081,5.291-1.538,1.1-8.392.711-8.866,5.163" transform="translate(-937.139 -541.464)" fill="#233862"/><path d="M1900.906,972.8h23.524s.88-3.752-.665-6.3c-1.368-2.259-.844-3.546.169-5.415a9.139,9.139,0,0,1-3.962.746,8.3,8.3,0,0,1-3.5-1.23c-1.012,1.154-5.348,6.068-6.7,7.04-1.537,1.1-8.392.711-8.866,5.163" transform="translate(-871.509 -542.835)" fill="#233862"/><path d="M1789.732,645.066l-5.591-13.636a3.78,3.78,0,0,0-4.493-2.2,23.294,23.294,0,0,0-7.292-8.3,17.356,17.356,0,0,0-9.844-3.239,13.923,13.923,0,0,0-5.253,1.04c-7.948,3.257-11.51,13.3-8.594,23.161l-.435.177s-1.359-.094-3.637-.094c-7.2,0-23.564.956-35.045,8.931a3.17,3.17,0,0,0-.75,1.942,3.047,3.047,0,0,0,.242,1.286s18.43-11.934,35.476.329q1.57,1.125,3.05,2.09l1.529,3.732a12.189,12.189,0,0,0,15.858,6.637l15.611-6.4,3.254-1.333a10.859,10.859,0,0,0,5.913-14.127m-30.267-11.053-6.358,2.609a3.726,3.726,0,0,0-2.192,4.351l-.681.279c-2.587-8.985.569-18.046,7.666-20.955a11.964,11.964,0,0,1,3.058-.808,14.818,14.818,0,0,1,9.734,2.359,21.413,21.413,0,0,1,7.374,8l-.939.383a3.731,3.731,0,0,0-4.612-1.561l-6.361,2.609a3.146,3.146,0,0,0-4.094-1.717l-.88.362a3.146,3.146,0,0,0-1.714,4.094" transform="translate(-762.947 -349.06)" fill="#c94c43"/><path d="M1747.568,694.68q-1.483-.967-3.05-2.091c-17.046-12.264-35.476-.329-35.476-.329a3.048,3.048,0,0,1-.242-1.286c2.58-1.7,12.249-7.351,24.23-5.42,14.039,2.264,16.579,4.217,14.539,9.126" transform="translate(-762.947 -387.184)" fill="#b23b38"/><path d="M1851.6,659.193l-3.254,1.333c4.876-2.663-1.163-13.912-4.7-21.339s-8.876-4.032-8.876-4.032a4.248,4.248,0,0,0-3.848-2.354,2.966,2.966,0,0,0-1.967-2.881l.88-.362a3.144,3.144,0,0,1,4.094,1.717l6.362-2.609a3.731,3.731,0,0,1,4.612,1.562l.939-.384a21.418,21.418,0,0,0-7.374-8,14.819,14.819,0,0,0-9.734-2.359,6.922,6.922,0,0,0,1.554-1.8,17.357,17.357,0,0,1,9.844,3.239,23.3,23.3,0,0,1,7.292,8.3,3.78,3.78,0,0,1,4.493,2.2l5.591,13.636a10.859,10.859,0,0,1-5.913,14.127" transform="translate(-830.726 -349.06)" fill="#b23b38"/><path d="M1862.25,633.792c2.261.954,5.443,4.277,10.533,2.262a78.766,78.766,0,0,1,9.367-2.863c.741-.142,1.165-.248,1.165-.248l-2.014-5.867a1.122,1.122,0,0,1-.248.071c-1.308.282-7.953,1.7-11.063.99-3.5-.813-9.366,3.393-9.366,3.393s-.636,1.343,1.626,2.262" transform="translate(-848.699 -354.363)" fill="#ffb27d"/><path d="M1707.645,712.865c0-2.123-3.844-8.675-3.844-8.675s-3.844,6.552-3.844,8.675a3.844,3.844,0,1,0,7.687,0" transform="translate(-757.953 -397.94)" fill="#fff"/><path d="M2388.254,1550.314s4.453,4.127,3.584,7.059-4.886,4.887-5.43,8.47-2.715,5.538-4.669,5.538h-9.319s-1.439-2.521,2.035-3.282,4.786-4.971,4.568-8.88a69.843,69.843,0,0,1,.325-9.122l7.385-1.737Z" transform="translate(-1059.906 -874.984)" fill="#2c3a64"/><path d="M2249.609,1574s1.086,8.687-.868,9.665-25.3.651-25.3.651,0-2.932,4.017-3.584,11.077-3.04,12.27-8.361,9.883,1.629,9.883,1.629" transform="translate(-975.882 -887.421)" fill="#2c3a64"/><path d="M2235.053,1270.726s1.319,16.463,2.87,36.25c2.107,26.88,4.642,59.9,4.892,66.152.434,10.862,2.174,28.235,2.174,28.235s4.124,4.128,12.379,2.388c0,0,7.357-24.8,9.458-51.043.032-.43.064-.864.1-1.3,1.954-26.713,4.994-82.965,4.994-82.965Z" transform="translate(-982.446 -716.804)" fill="#35488b"/><path d="M2235.053,1270.726s1.319,16.463,2.87,36.25l28.9,45.733c.032-.43.064-.864.1-1.3,1.954-26.713,4.994-82.965,4.994-82.965Z" transform="translate(-982.446 -716.804)" fill="#2c3a64"/><path d="M2248.908,1264.215s23.782,59.617,39.419,87.634,20.524,35.836,20.524,35.836,8.959-3.583,9.774-6.027c0,0-5.98-54.088-16.452-67.273-5.917-7.45-12.867-29.809-13.193-37.627s-2.118-23.293-2.118-23.293Z" transform="translate(-990.275 -708.338)" fill="#35488b"/><path d="M2123.846,1259.212s-8.392,4.028-9.522,5.062-3.916,6.108-3.7,6.491.631.5,1.393-.025,2.895-2.724,2.973-2.315-5.7,7.2-4.675,8.643,6.811,1.013,10.118-1.339,6.607-10.995,7.1-11.467c4.216-4-3.687-5.049-3.687-5.049" transform="translate(-911.886 -711.586)" fill="#ffb27d"/><path d="M2137.615,1165.361c-2.329-2.027-2.391-2.54-2.391-2.54s14.881-25.733,16.172-28.208,9.265-41.121,9.265-41.121l27.572-8s-19.422,50.22-22.812,56.427c-5.605,10.256-23.9,25.351-23.9,25.351a8.6,8.6,0,0,1-3.9-1.913" transform="translate(-926.032 -613.419)" fill="#ed7d2b"/><path d="M2195.58,1045.649s-9.7,17.073-19.187,19.3c0,0,.394-5.734,2.7-9.658-.947-1.115-1.776-2.14-2.495-3.057a57.2,57.2,0,0,1-3.523-4.932l3.219-8.654,2.184-5.871a28.2,28.2,0,0,0,3.412,4.918,23.215,23.215,0,0,0,13.686,7.953" transform="translate(-947.424 -583.627)" fill="#ffb27d"/><path d="M2181.894,1044.083s1.157,8.554-5.293,14.539a57.1,57.1,0,0,1-3.523-4.932l3.218-8.654a18.373,18.373,0,0,1,5.6-.953" transform="translate(-947.423 -590.014)" fill="#ed975d"/><path d="M2151.258,1032.741s14.5-5.652,10.84-14.626-4.253-15.748-13.664-12.518-9.8,7.382-9.309,10.675,8.268,17.709,12.133,16.47" transform="translate(-928.16 -567.804)" fill="#ffb27d"/><path d="M2248.471,1146.891c-5.847,8.407-49.577,19.641-49.054,13.824a63.418,63.418,0,0,0-.006-11.478q-.167-1.873-.465-3.965a91.509,91.509,0,0,0-9.638-28.867q-.661-1.28-1.375-2.584a88.337,88.337,0,0,1-6.062-13.62c-3.03-8.755-4.256-17.133-2.722-22.609a.287.287,0,0,1,.022-.076c9.139-4.226,12.681-20.616,12.681-20.616s31.182,5.6,48.653,47.162c0,0,1.678,4.563,3.594,10.758,2.328,7.513,5.01,17.418,5.475,24.483.227,3.356-.053,6.073-1.1,7.589" transform="translate(-950.481 -597.258)" fill="#f99746"/><path d="M2157.155,992.711c.1-.2.4-.415,1.117-.635a3.02,3.02,0,0,0-1.46-.054c-.406-.993-1.4-2.684-3.252-2.7a2.288,2.288,0,0,1,1.457,1.343c-2.543-1.612-7.257-2.08-19.024,1.839-15.509,5.166-7.761,14.169-5.41,14.891s6.677-3.91,10.57-4.543,6,4.789,7.48,5.239.641-.784,2.194-2.019,2.447,1.671,2.413,3.712,3,3.976,3,3.976l1.777-3.259c1.776-3.259,1.292-15.091-.405-17.221-.15-.188-.3-.379-.452-.571" transform="translate(-921.137 -559.071)" fill="#2b478b"/><path d="M2285.272,1173.334c-37.627-11.35-43.614-56.213-43.614-56.213s21.424,16.373,38.139,31.729c2.329,7.513,5.011,17.417,5.475,24.483" transform="translate(-986.178 -631.289)" fill="#ed7d2b"/><path d="M2364.788,1246.923s-.849,7.119-.645,8.281,1.561,4.617,1.9,4.636,1.359.06,1.332-.652-.49-1.377-.191-1.259.383,2.8,1.74,2.734,5.351-1.575,5.189-4.7-4.417-8.837-4.518-9.355c-.86-4.394-4.805.31-4.805.31" transform="translate(-1055.378 -703.406)" fill="#ffb27d"/><path d="M2278.77,1153.627c-2.985,1.369-4.094-.027-4.094-.027s-17.389-29.037-19.22-31.371-33.932-16.11-33.932-16.11-13.065-4.994-13.58-12.918c-.449-6.887,3.46-11.117,7.741-13.669a14.454,14.454,0,0,1,16.25,1.05c10.53,8.177,31.4,24.627,34.764,29.087,7.477,9.928,15.764,41.048,15.764,41.048a10.35,10.35,0,0,1-3.692,2.911" transform="translate(-967.106 -608.909)" fill="#f99746"/><path d="M2173.4,1296.776l-7.826,7.819-.109-.068-11.746-7.369s6.078,1.962,6.9,1.733c.775-.217,9.267-3.134,11.268-2.891a.8.8,0,0,1,.292.082Z" transform="translate(-936.484 -732.367)" fill="#4a75cb"/><path d="M2131.135,1294.878c-.315-.068-1.246-.289-2.514-.614-3.648-.934-10.079-2.725-12.618-4.194-2.277-1.317-14.311-8.315-22.6-13.229a15.368,15.368,0,0,1,9.306-1.673c9.679,5.682,22.324,13.14,23.872,14.228,2.546,1.792,6.016,3.957,6.016,3.957a2.479,2.479,0,0,1-.05.247c-.117.48-.479,1.48-1.41,1.28" transform="translate(-902.397 -720.527)" fill="#e58638"/><path d="M2115.256,1283.86c-.315-.068-1.245-.289-2.514-.614-3.648-.934-10.078-2.725-12.617-4.194-2.277-1.318-14.31-8.314-22.6-13.23-4.164-2.467-7.383-4.41-7.948-4.845-1.692-1.3-4.949-4.552-4.148-5.165s2.364,0,2.952-.087l.025,0c.136-.021.364-.057.677-.075a11.665,11.665,0,0,1,6.493,1.911s5.01,2.925,11.255,6.591c9.679,5.682,22.325,13.141,23.872,14.229,2.547,1.791,6.015,3.956,6.015,3.956a2.469,2.469,0,0,1-.049.247c-.117.481-.479,1.48-1.41,1.28" transform="translate(-886.519 -709.51)" fill="#739af0"/><path d="M2175.8,1316.488c-.314-.068-1.245-.289-2.515-.614a3.718,3.718,0,0,0-.846-2.6l4.771,1.933c-.118.48-.478,1.48-1.41,1.28" transform="translate(-947.062 -742.138)" fill="#4a75cb"/><g transform="translate(1181.883 546.137)" opacity="0.5"><g clip-path="url(#e)"><path d="M2156.293,1305.962h0a.158.158,0,0,1-.055-.215l.084-.144a.159.159,0,0,1,.217-.055.157.157,0,0,1,.053.215l-.084.143a.157.157,0,0,1-.215.055" transform="translate(-2119.778 -1283.896)" fill="#4a75cb"/><path d="M2154.691,1305.015h0a.157.157,0,0,1-.056-.216l.084-.143a.157.157,0,1,1,.27.16l-.084.143a.157.157,0,0,1-.214.055" transform="translate(-2118.872 -1283.36)" fill="#4a75cb"/><path d="M2153.087,1304.067h0a.156.156,0,0,1-.056-.215l.084-.143a.157.157,0,0,1,.271.16l-.085.143a.156.156,0,0,1-.214.055" transform="translate(-2117.966 -1282.825)" fill="#4a75cb"/><path d="M2151.483,1303.12h0a.157.157,0,0,1-.055-.215l.085-.143a.157.157,0,0,1,.271.16l-.085.143a.156.156,0,0,1-.215.055" transform="translate(-2117.059 -1282.29)" fill="#4a75cb"/><path d="M2149.88,1302.172h0a.156.156,0,0,1-.055-.215l.083-.144a.157.157,0,0,1,.271.16l-.085.144a.158.158,0,0,1-.215.055" transform="translate(-2116.153 -1281.754)" fill="#4a75cb"/><path d="M2148.276,1301.224h0a.158.158,0,0,1-.054-.215l.084-.143a.157.157,0,1,1,.271.16l-.084.143a.158.158,0,0,1-.216.055" transform="translate(-2115.248 -1281.218)" fill="#4a75cb"/><path d="M2146.674,1300.276h0a.158.158,0,0,1-.055-.215l.085-.143a.157.157,0,1,1,.27.16l-.084.143a.156.156,0,0,1-.215.055" transform="translate(-2114.342 -1280.683)" fill="#4a75cb"/><path d="M2145.07,1299.329h0a.158.158,0,0,1-.055-.215l.084-.143a.158.158,0,0,1,.216-.055.157.157,0,0,1,.054.215l-.084.144a.158.158,0,0,1-.215.055" transform="translate(-2113.435 -1280.147)" fill="#4a75cb"/><path d="M2143.468,1298.381h0a.158.158,0,0,1-.056-.215l.085-.143a.157.157,0,1,1,.27.159l-.085.144a.157.157,0,0,1-.215.055" transform="translate(-2112.53 -1279.611)" fill="#4a75cb"/><path d="M2124.576,1287.214h0a.157.157,0,0,1-.055-.216l.084-.143a.157.157,0,0,1,.27.16l-.084.144a.158.158,0,0,1-.215.055" transform="translate(-2101.855 -1273.301)" fill="#4a75cb"/><path d="M2122.974,1286.267h0a.157.157,0,0,1-.056-.215l.084-.143a.157.157,0,0,1,.271.16l-.085.143a.156.156,0,0,1-.214.055" transform="translate(-2100.948 -1272.766)" fill="#4a75cb"/><path d="M2121.37,1285.32h0a.157.157,0,0,1-.055-.215l.085-.142a.157.157,0,1,1,.27.159l-.084.143a.157.157,0,0,1-.215.056" transform="translate(-2100.042 -1272.23)" fill="#4a75cb"/><path d="M2119.767,1284.372h0a.159.159,0,0,1-.056-.215l.085-.143a.157.157,0,0,1,.271.16l-.085.143a.156.156,0,0,1-.215.056" transform="translate(-2099.137 -1271.695)" fill="#4a75cb"/><path d="M2118.163,1283.424h0a.159.159,0,0,1-.055-.215l.085-.143a.157.157,0,1,1,.271.16l-.085.143a.157.157,0,0,1-.215.055" transform="translate(-2098.231 -1271.159)" fill="#4a75cb"/><path d="M2116.562,1282.476h0a.159.159,0,0,1-.057-.215l.086-.143a.157.157,0,0,1,.215-.055.159.159,0,0,1,.055.216l-.085.143a.156.156,0,0,1-.214.055" transform="translate(-2097.325 -1270.624)" fill="#4a75cb"/><path d="M2114.957,1281.529h0a.158.158,0,0,1-.055-.215l.084-.143a.157.157,0,1,1,.271.159l-.084.143a.158.158,0,0,1-.215.056" transform="translate(-2096.419 -1270.088)" fill="#4a75cb"/><path d="M2113.355,1280.581h0a.157.157,0,0,1-.056-.215l.084-.143a.157.157,0,1,1,.27.16l-.084.143a.156.156,0,0,1-.214.055" transform="translate(-2095.513 -1269.553)" fill="#4a75cb"/><path d="M2111.751,1279.633h0a.157.157,0,0,1-.056-.215l.084-.143a.157.157,0,1,1,.271.16l-.086.142a.156.156,0,0,1-.214.056" transform="translate(-2094.607 -1269.017)" fill="#4a75cb"/><path d="M2105.547,1275.965h0a.156.156,0,0,1-.055-.215l.084-.143a.159.159,0,0,1,.216-.056.156.156,0,0,1,.053.215l-.084.143a.156.156,0,0,1-.215.055" transform="translate(-2091.101 -1266.944)" fill="#4a75cb"/><path d="M2108.682,1277.819h0a.158.158,0,0,1-.056-.215l.084-.143a.157.157,0,1,1,.27.16l-.085.143a.156.156,0,0,1-.214.055" transform="translate(-2092.873 -1267.992)" fill="#4a75cb"/><path d="M2103.944,1275.018h0a.155.155,0,0,1-.055-.214l.083-.143a.157.157,0,1,1,.27.159l-.084.144a.157.157,0,0,1-.215.054" transform="translate(-2090.195 -1266.41)" fill="#4a75cb"/><path d="M2102.34,1274.071h0a.157.157,0,0,1-.055-.215l.084-.143a.157.157,0,0,1,.271.16l-.085.143a.155.155,0,0,1-.215.055" transform="translate(-2089.289 -1265.874)" fill="#4a75cb"/><path d="M2100.737,1273.123h0a.157.157,0,0,1-.055-.215l.084-.143a.157.157,0,0,1,.271.16l-.084.143a.157.157,0,0,1-.215.055" transform="translate(-2088.383 -1265.338)" fill="#4a75cb"/><path d="M2099.134,1272.176h0a.158.158,0,0,1-.055-.216l.084-.143a.157.157,0,1,1,.27.16l-.085.143a.158.158,0,0,1-.215.055" transform="translate(-2087.478 -1264.803)" fill="#4a75cb"/><path d="M2097.531,1271.228h0a.156.156,0,0,1-.056-.215l.085-.143a.157.157,0,0,1,.27.159l-.084.143a.156.156,0,0,1-.215.055" transform="translate(-2086.571 -1264.267)" fill="#4a75cb"/><path d="M2095.927,1270.281h0a.159.159,0,0,1-.055-.215l.085-.143a.157.157,0,0,1,.271.16l-.085.143a.158.158,0,0,1-.216.055" transform="translate(-2085.665 -1263.732)" fill="#4a75cb"/><path d="M2094.325,1269.332h0a.158.158,0,0,1-.055-.215l.084-.143a.157.157,0,1,1,.27.16l-.085.143a.156.156,0,0,1-.214.056" transform="translate(-2084.759 -1263.196)" fill="#4a75cb"/><path d="M2092.722,1268.385h0a.157.157,0,0,1-.055-.215l.084-.143a.157.157,0,1,1,.27.16l-.084.143a.157.157,0,0,1-.215.055" transform="translate(-2083.854 -1262.661)" fill="#4a75cb"/><path d="M2091.149,1267.456h0a.158.158,0,0,1-.055-.215l.085-.143a.157.157,0,1,1,.27.16l-.084.143a.157.157,0,0,1-.215.055" transform="translate(-2082.965 -1262.136)" fill="#4a75cb"/><path d="M2089.547,1266.509h0a.158.158,0,0,1-.056-.215l.085-.143a.157.157,0,1,1,.27.159l-.084.144a.158.158,0,0,1-.215.055" transform="translate(-2082.06 -1261.6)" fill="#4a75cb"/><path d="M2087.943,1265.561h0a.157.157,0,0,1-.055-.215l.083-.143a.157.157,0,1,1,.27.159l-.084.143a.157.157,0,0,1-.215.056" transform="translate(-2081.154 -1261.065)" fill="#4a75cb"/><path d="M2073.862,1256.69a.241.241,0,0,1-.271.076.228.228,0,0,1-.067-.037l-1.093-.865c.137-.021.364-.057.678-.075l.714.565a.241.241,0,0,1,.039.337" transform="translate(-2072.431 -1255.788)" fill="#4a75cb"/><path d="M2115.606,1282.559l-.211-.125a.3.3,0,0,1-.1-.4l.523-.883a.3.3,0,0,1,.4-.1l.212.126a.3.3,0,0,1,.1.4l-.522.883a.3.3,0,0,1-.405.1" transform="translate(-2096.628 -1270.036)" fill="#4a75cb"/><path d="M2118.791,1284.442l-.211-.125a.3.3,0,0,1-.1-.405l.522-.883a.3.3,0,0,1,.4-.1l.213.125a.3.3,0,0,1,.1.4l-.522.884a.3.3,0,0,1-.406.1" transform="translate(-2098.428 -1271.1)" fill="#4a75cb"/><path d="M2138.754,1295.6h0a.158.158,0,0,1-.055-.215l.085-.144a.157.157,0,0,1,.271.16l-.086.144a.157.157,0,0,1-.214.055" transform="translate(-2109.866 -1278.037)" fill="#4a75cb"/><path d="M2137.152,1294.648h0a.155.155,0,0,1-.055-.215l.084-.143a.157.157,0,1,1,.271.159l-.084.143a.158.158,0,0,1-.215.055" transform="translate(-2108.961 -1277.502)" fill="#4a75cb"/><path d="M2135.548,1293.7h0a.157.157,0,0,1-.055-.215l.084-.142a.157.157,0,1,1,.271.16l-.085.143a.158.158,0,0,1-.215.055" transform="translate(-2108.055 -1276.967)" fill="#4a75cb"/><path d="M2133.946,1292.752h0a.157.157,0,0,1-.056-.215l.084-.143a.159.159,0,0,1,.216-.056.156.156,0,0,1,.053.215l-.083.143a.158.158,0,0,1-.215.056" transform="translate(-2107.148 -1276.43)" fill="#4a75cb"/><path d="M2132.343,1291.8h0a.157.157,0,0,1-.056-.215l.085-.143a.157.157,0,0,1,.216-.055.156.156,0,0,1,.055.214l-.085.144a.156.156,0,0,1-.214.055" transform="translate(-2106.243 -1275.895)" fill="#4a75cb"/><path d="M2130.739,1290.857h0a.156.156,0,0,1-.055-.215l.084-.143a.157.157,0,1,1,.27.16l-.084.143a.158.158,0,0,1-.215.055" transform="translate(-2105.337 -1275.36)" fill="#4a75cb"/><path d="M2129.136,1289.91h0a.156.156,0,0,1-.055-.215l.084-.143a.157.157,0,1,1,.271.16l-.084.143a.157.157,0,0,1-.215.055" transform="translate(-2104.43 -1274.825)" fill="#4a75cb"/><path d="M2127.532,1288.962h0a.158.158,0,0,1-.055-.215l.084-.142a.157.157,0,1,1,.27.16l-.085.142a.157.157,0,0,1-.215.056" transform="translate(-2103.525 -1274.289)" fill="#4a75cb"/><path d="M2125.929,1288.014h0a.157.157,0,0,1-.055-.215l.084-.143a.157.157,0,1,1,.27.16l-.084.143a.157.157,0,0,1-.215.055" transform="translate(-2102.62 -1273.753)" fill="#4a75cb"/></g></g><path d="M2113.971,1290.293a.563.563,0,0,0,.586-.833,3.175,3.175,0,0,0-1.113-1.187c-1.055-.61-1.368,1.322-1.024,1.54a6.094,6.094,0,0,0,1.551.48" transform="translate(-913.07 -727.941)" fill="#2b478b"/><path d="M2107.173,1283.615l-1.3,2.195a11.8,11.8,0,0,1-3.054-1.247,9.454,9.454,0,0,1-2.072-1.5,3.14,3.14,0,0,1-.31-.347l1.359-2.3a1.283,1.283,0,0,1,.479.06c1.544.438,4.715,2.938,4.715,2.938Z" transform="translate(-906.375 -723.563)" fill="#2b478b"/><path d="M2102.279,1280.472l-1.529,2.587a3.228,3.228,0,0,1-.309-.347l1.36-2.3a1.291,1.291,0,0,1,.479.061" transform="translate(-906.376 -723.563)" fill="#4a75cb"/><path d="M2172.365,1312.388a21.677,21.677,0,0,1,6.982,2.772l-3.082-.047-3.958-2.339s-.26-.269.057-.386" transform="translate(-946.931 -741.636)" fill="#2b478b"/><path d="M2130.725,1288.329s-2.773,1.909-3.255,2.167a2.686,2.686,0,0,1-1.256.188h0l-4.771-.8s-5.084-2.97-6.179-3.644c-.1-.061-.165-.1-.191-.123-.32-.232-.427-.438-.318-.5s8.472,3.263,9.394,3.636l.027.011c.9.36,1.082.172,1.082.172l4.61-1.266a.453.453,0,0,1,.249-.029,2.205,2.205,0,0,1,.613.194" transform="translate(-914.439 -726.503)" fill="#4a75cb"/><path d="M2130.112,1288.136c-1.262.387-4.747,1.452-5.051,1.491-.327.041-7.931-2.715-9.8-3.39-.1-.061-.166-.1-.191-.123-.321-.232-.427-.438-.318-.5s8.47,3.263,9.394,3.637,1.108.182,1.108.182l4.611-1.266a.455.455,0,0,1,.248-.029" transform="translate(-914.439 -726.503)" fill="#4a75cb"/><path d="M2143.021,1291.605s-2.774,1.908-3.256,2.167a2.677,2.677,0,0,1-1.254.188h0a10.286,10.286,0,0,1-2.037-1.425c.9.359,1.081.172,1.081.172l4.611-1.266a.454.454,0,0,1,.247-.029,2.187,2.187,0,0,1,.613.194" transform="translate(-926.735 -729.779)" fill="#4a75cb"/><path d="M2165.681,1304.808l-11.961-7.484s6.175,2.015,7.007,1.791c.784-.211,9.37-3.078,11.4-2.82-2.307.932-7.717,3.24-8.091,4.519-.357,1.219.958,3.115,1.644,3.994" transform="translate(-936.484 -732.532)" fill="#739af0"/><path d="M1935.5,1284.167c.048-2.515,2-6.8-1.855-10.881a80.872,80.872,0,0,1-6.287-7.822c-.417-.653-5.078,3.182-4.978,3.337.766,1.137,4.284,6.925,4.794,10.154.558,3.638,6.792,7.62,6.792,7.62s1.519.095,1.533-2.408" transform="translate(-805.754 -715.077)" fill="#f4a671"/><path d="M1923.754,1242.275c-6.13.32-10.321-9.193-12.9-9.318a16.177,16.177,0,0,0-2.263.25,44.653,44.653,0,0,1,5.562,14.465c3.676,18.351-4.07,35.377-17.3,38.024-12.865,2.575-26.182-9.4-30.278-26.95q-.172-.735-.322-1.487a44.718,44.718,0,0,1-.445-15.392.249.249,0,0,1,.006-.043,8.138,8.138,0,0,0-1.237.395c-2.338,1.111-2.541,11.5-8.324,13.566s-9.678-9.017-2.793-17.647c4.2-5.264,11.637-7.8,16.8-8.984a24.783,24.783,0,0,1,3.684-4.683c.051-.051.1-.1.155-.155a15.052,15.052,0,0,1-7.8-14.846c-.013,0-.024-.008-.038-.011a7.633,7.633,0,1,1,8.332-11.855,15.106,15.106,0,0,1,7.173-1.543,7.633,7.633,0,1,1,12.543,7.569,15.065,15.065,0,0,1-.931,16.341,24.2,24.2,0,0,1,6.24,3.289c5.181-.991,13.651-1.8,19.926,1.653,9.678,5.314,10.344,17.04,4.214,17.362" transform="translate(-764.733 -672.686)" fill="#2b478b"/><path d="M1886.777,1324.1c-.115-.491-.221-.986-.323-1.488a44.7,44.7,0,0,1-.445-15.392c.759-.885,1.77-1.543,2.915-1,2.532,1.2,2.133,13.326,6,16.125,2.865,2.073-4.3,2.1-8.145,1.754" transform="translate(-784.936 -738.039)" fill="#233862"/><path d="M1902.605,1247.319a42.489,42.489,0,0,1-7.33,1.927c.051-.051.1-.1.154-.155a15.052,15.052,0,0,1-7.8-14.846c-.014,0-.024-.008-.038-.011.152-.062.347.032.6.389.964,1.367,6.175,12.428,14.417,11.163,0,0,2.154.733,0,1.532" transform="translate(-786.064 -697.461)" fill="#233862"/><path d="M1931.166,1202s1.932-3.6,4.8-2.665,3.265,5.064,1.4,6.2a17.4,17.4,0,0,0-6.2-3.531" transform="translate(-810.718 -677.66)" fill="#233862"/><path d="M1891.745,1209.5s-4.132-1.9-6,.3,1.865,5,1.865,5,1.8-3.729,4.132-5.3" transform="translate(-784.756 -683.063)" fill="#233862"/><path d="M1774.446,1301.2c-2.917-2.623-.517-8.817-1.629-10.039a10.345,10.345,0,0,0-1.136-.908,28.522,28.522,0,0,1-4.015,9.053c-6.622,9.959-17.812,14.162-24.99,9.387-6.981-4.644-7.6-16.073-1.527-25.858q.254-.41.525-.818a28.571,28.571,0,0,1,6.748-7.162.1.1,0,0,1,.022-.017,5.332,5.332,0,0,0-.737-.38c-1.559-.553-6.341,4.054-9.89,2.378s-.306-8.448,6.7-9.243c4.275-.486,8.786,1.724,11.656,3.522a15.857,15.857,0,0,1,3.779-.456c.046,0,.093,0,.14,0a9.621,9.621,0,0,1,3.173-10.237.231.231,0,0,0-.012-.021,4.878,4.878,0,1,1,9.121-1.6,9.656,9.656,0,0,1,3.941,2.541,4.877,4.877,0,1,1,2.255,9.086,9.623,9.623,0,0,1-7.8,6.97,15.486,15.486,0,0,1,1.337,4.3c2.791,1.891,6.985,5.351,8.265,9.743,1.978,6.773-3.015,12.377-5.932,9.755" transform="translate(-700.637 -708.192)" fill="#efcdaf"/><path d="M1747.362,1310.942q.254-.41.526-.818a28.551,28.551,0,0,1,6.747-7.162,1.548,1.548,0,0,1,1.771.865c.6,1.685-5.052,6.989-4.568,10,.36,2.232-2.891-.992-4.476-2.884" transform="translate(-706.849 -736.303)" fill="#e2b99a"/><path d="M1794.448,1282.439a27.092,27.092,0,0,1-4.185-2.438c.046,0,.093,0,.14,0a9.624,9.624,0,0,1,3.173-10.238c-.005-.006-.007-.014-.012-.021.1.04.142.17.1.447-.181,1.054-2.818,8.409,1.48,11.557,0,0,.643,1.3-.692.693" transform="translate(-730.943 -717.536)" fill="#e2b99a"/><path d="M1830.786,1276.238s2.5-.755,3.374.96-.81,3.764-2.166,3.434a11.111,11.111,0,0,0-1.208-4.394" transform="translate(-753.993 -721.114)" fill="#fff3e9"/><path d="M1809.014,1261.315s-1.008-2.725-2.845-2.573-1.415,3.1-1.415,3.1a10.152,10.152,0,0,1,4.26-.531" transform="translate(-739.258 -711.317)" fill="#fff3e9"/><path d="M1673.788,1329.991s-6.261-8.071-6.3-14.658.15-8.774,1.249-8.477,6.045,3.97,7.822,7.628,4.9,13.229,4.965,14.531-7.734.977-7.734.977" transform="translate(-661.707 -738.495)" fill="#afcdfb"/><path d="M1677.292,1333.687s-4-5.576-4.152-10.03-.075-5.929.606-5.707a14.163,14.163,0,0,1,4.951,5.305,68.65,68.65,0,0,1,3.327,9.918c.064.88-4.733.513-4.733.513" transform="translate(-664.869 -744.767)" fill="#e57970"/><path d="M1702.491,1332.307s-3-10.932-1.816-13.907,7.334-.99,8.031,1.108.268,10.959.268,10.959Z" transform="translate(-680.309 -744.179)" fill="#afcdfb"/><path d="M1706.971,1323.441s-.434,8.664,1.08,12.036l2.914-.828s.452-9.673.063-10.327-4.057-.881-4.057-.881" transform="translate(-683.992 -747.882)" fill="#e57970"/><path d="M1700.644,1318.158s10.094,6.681,10.909,5.975-2.256-7.487-3.446-8.094-7.535-1.86-7.463,2.119" transform="translate(-680.448 -743.317)" fill="#afcdfb"/><rect width="137.614" height="113.472" transform="translate(1001.629 583.477)" fill="#d3671e"/><rect width="137.614" height="113.472" transform="translate(1070.435 583.477)" fill="#f99746"/><g transform="translate(1070.437 583.477)" opacity="0.4"><g clip-path="url(#f)"><path d="M1953.781,1341.647v36.032l-137.615,8.242v-44.274Z" transform="translate(-1816.168 -1341.647)" fill="#d86713"/></g></g><path d="M1816.169,1341.646,1843.4,1371.5h135.794l-25.408-29.856Z" transform="translate(-745.732 -758.169)" fill="#f99746"/><path d="M1658.137,1522.724h21.806l-1.921-6.136,1.921-4.384h-21.806Z" transform="translate(-656.428 -854.552)" fill="#f1a34f"/><g transform="translate(1186.271 677.112)" opacity="0.4"><g clip-path="url(#g)"><path d="M2104.331,1567.472h-21.807l1.922-6.136-1.922-4.384h21.807Z" transform="translate(-2082.522 -1556.951)" fill="#d86713"/></g></g><path d="M1726.865,1354.474l-29.007,29.008h-39.72v-41.836h68.727Z" transform="translate(-656.428 -758.169)" fill="#c95c12"/><path d="M1617.75,1341.646l-30.94,29.856h68.851l30.9-29.856Z" transform="translate(-616.12 -758.169)" fill="#f99746"/><path d="M1563.26,1491.82l-2.506.487a5.522,5.522,0,0,1-6.454-4.356l-3.686-18.974a5.525,5.525,0,0,1,3.585-6.247,1.517,1.517,0,0,1-.055-.2l-.217-1.115a1.437,1.437,0,0,1,1.135-1.68l1.115-.217a1.438,1.438,0,0,1,1.682,1.133l.214,1.118a1.016,1.016,0,0,1,.022.156c0,.01,0,.018,0,.028a5.525,5.525,0,0,1,5.835,4.438l3.684,18.975a5.525,5.525,0,0,1-4.357,6.456" transform="translate(-595.609 -824.764)" fill="#caddff"/><rect width="13.566" height="13.283" transform="translate(955.215 645.293) rotate(-10.989)" fill="#2b478b"/><path d="M1562.5,1461.923l-3.9.808a1.541,1.541,0,0,1-.054-.2l-.217-1.116a1.436,1.436,0,0,1,1.135-1.68l1.115-.217a1.437,1.437,0,0,1,1.682,1.133l.215,1.118a.958.958,0,0,1,.021.156" transform="translate(-600.01 -824.764)" fill="#4a75cb"/><path d="M1725.017,1449.986s-1.65,2.323-3.162,2.355a11.065,11.065,0,0,1-3.814-1.077s-1.389-3.1-.447-4.307a2.022,2.022,0,0,1,1.932.318,2.893,2.893,0,0,1,.511.489,1.628,1.628,0,0,0,.794.539c1.079.328,2.361-.445,2.84.3a5.076,5.076,0,0,0,.835.988,3.812,3.812,0,0,0,.511.393" transform="translate(-689.841 -817.616)" fill="#f9ddbf"/><path d="M1685.628,1473.89s5.831-14.131,16.329-14.4c0,0,9.69,1.077,10.228,14.4Z" transform="translate(-671.964 -824.763)" fill="#f9ddbf"/><path d="M1716.536,1458.1s4.207.935,5.505.386a1.3,1.3,0,0,0-1.576-1.514,3.718,3.718,0,0,1-2.468-.65c-.657-.334-1.637,1.042-1.462,1.777" transform="translate(-689.418 -822.947)" fill="#f1a34f"/><path d="M1723.558,1450.686c-.269.2-1.1-2.845-1.1-2.845a2.866,2.866,0,0,1,.511.49,1.625,1.625,0,0,0,.794.538c0,.089.052,1.621-.209,1.817" transform="translate(-692.778 -818.181)" fill="#e5c1a1"/><path d="M1730.927,1451.885a17.279,17.279,0,0,1-2.269,1.2c-.269,0,1.435-2.188,1.435-2.188a5.088,5.088,0,0,0,.835.988" transform="translate(-696.263 -819.908)" fill="#e5c1a1"/><path d="M1698.724,1475.36c-.108-.092,4.127-6.235,5.294-6.28s3.786,1.345,5.684,1.525,3.736-.359,4.1.763,1.346,5.1.74,5.734-13.484.248-15.814-1.742" transform="translate(-679.363 -830.183)" fill="#e5c1a1"/><path d="M1546.818,1484.45a1.985,1.985,0,0,1-.667.753,2.037,2.037,0,0,1-.5.241,2,2,0,0,1-1.527-.116l-26.15-13.285a2,2,0,0,1,1.813-3.57l26.149,13.284a2.008,2.008,0,0,1,.879,2.692" transform="translate(-576.603 -829.718)" fill="#e57970"/><path d="M1531.723,1477.389l-1.648-5.329-4.212-2.139,2.539,5.781Z" transform="translate(-581.679 -830.658)" fill="#b64c41"/><path d="M1546.407,1484.849l-3.322-1.687-2.539-5.781,4.212,2.139Z" transform="translate(-589.977 -834.874)" fill="#b64c41"/><path d="M1561.078,1492.3l-3.323-1.688-2.539-5.781,4.213,2.14Z" transform="translate(-598.266 -839.085)" fill="#b64c41"/><path d="M1576.259,1498.862a2.058,2.058,0,0,1-.5.24,2,2,0,0,1-1.527-.117l-1.535-.779-2.539-5.781,4.212,2.139Z" transform="translate(-606.712 -843.375)" fill="#b64c41"/><path d="M1511.062,1465.983s-.528-2.842-2.838-3.687c0,0,.272.328-.84.682s-.788,1.12-1.184,1.468a4.978,4.978,0,0,0,4.861,1.538" transform="translate(-570.568 -826.349)" fill="#b64c41"/><path d="M1516.012,1469.878l-.062-.031a.363.363,0,0,1-.158-.486l.326-.641a.363.363,0,0,1,.485-.158l.062.031a.363.363,0,0,1,.159.485l-.326.641a.362.362,0,0,1-.485.159" transform="translate(-575.966 -829.869)" fill="#4a75cb"/><path d="M1585.466,1504.684s2.607-1.25,4.651.117c0,0-.425-.026-.056,1.08s-.44,1.3-.487,1.821a4.975,4.975,0,0,1-4.108-3.019" transform="translate(-615.361 -850.008)" fill="#b64c41"/><path d="M1585.12,1504.985l.062.031a.363.363,0,0,0,.485-.159l.325-.641a.362.362,0,0,0-.158-.485l-.061-.031a.363.363,0,0,0-.486.158l-.325.641a.362.362,0,0,0,.158.485" transform="translate(-615.054 -849.725)" fill="#4a75cb"/><path d="M1640.559,1468.124a1.984,1.984,0,0,1-.97.267,2.041,2.041,0,0,1-.548-.068,2,2,0,0,1-1.218-.93l-14.688-25.387A2,2,0,0,1,1626.6,1440l14.689,25.387a2.009,2.009,0,0,1-.73,2.737" transform="translate(-636.497 -813.185)" fill="#f1a34f"/><path d="M1632.258,1452.98l1.521-5.367-2.366-4.088-1.021,6.231Z" transform="translate(-640.749 -815.742)" fill="#f9ddbf"/><path d="M1640.507,1467.236l-1.865-3.224,1.021-6.231,2.366,4.088Z" transform="translate(-645.411 -823.798)" fill="#f9ddbf"/><path d="M1648.749,1481.479l-1.866-3.226,1.021-6.23,2.367,4.09Z" transform="translate(-650.068 -831.846)" fill="#f9ddbf"/><path d="M1657.9,1495.25a2.064,2.064,0,0,1-.548-.069,2,2,0,0,1-1.217-.93l-.862-1.49,1.022-6.23,2.366,4.089Z" transform="translate(-654.812 -840.045)" fill="#f9ddbf"/><path d="M1620.956,1433.591s1.106-2.671-.371-4.638c0,0,.05.423-1.075.114s-1.271.51-1.792.586a4.976,4.976,0,0,0,3.238,3.938" transform="translate(-633.587 -807.507)" fill="#f1a34f"/><path d="M1623.721,1438.53l-.034-.06a.361.361,0,0,1,.132-.493l.621-.36a.363.363,0,0,1,.494.132l.035.06a.363.363,0,0,1-.133.494l-.622.359a.362.362,0,0,1-.493-.132" transform="translate(-636.932 -812.376)" fill="#d3671e"/><path d="M1663.343,1505.72s2.867.372,3.836,2.633c0,0-.343-.253-.636.875s-1.075.848-1.4,1.262a4.976,4.976,0,0,1-1.8-4.77" transform="translate(-659.34 -850.889)" fill="#f1a34f"/><path d="M1662.541,1505.624l.034.06a.362.362,0,0,0,.493.131l.622-.36a.362.362,0,0,0,.132-.493l-.035-.06a.362.362,0,0,0-.493-.132l-.622.36a.362.362,0,0,0-.132.493" transform="translate(-658.889 -850.325)" fill="#d3671e"/><path d="M1552.86,1483.743a1.989,1.989,0,0,1-.743-.68,2.035,2.035,0,0,1-.232-.5,1.991,1.991,0,0,1,.141-1.525l13.7-25.932a2,2,0,0,1,3.541,1.871l-13.7,25.932a2.008,2.008,0,0,1-2.706.835" transform="translate(-596.333 -821.683)" fill="#4a75cb"/><path d="M1573.387,1468.806l5.355-1.562,2.207-4.176-5.821,2.445Z" transform="translate(-608.535 -826.785)" fill="#699ff0"/><path d="M1565.691,1483.368l1.741-3.294,5.821-2.445-2.207,4.176Z" transform="translate(-604.186 -835.014)" fill="#699ff0"/><path d="M1558,1497.917l1.742-3.3,5.822-2.445-2.208,4.177Z" transform="translate(-599.841 -843.235)" fill="#699ff0"/><path d="M1552.118,1512.99a2.015,2.015,0,0,1-.232-.5,1.991,1.991,0,0,1,.141-1.525l.8-1.522,5.821-2.445-2.207,4.176Z" transform="translate(-596.333 -851.61)" fill="#699ff0"/><path d="M1589.945,1448.286s2.851-.482,3.732-2.778c0,0-.333.266-.668-.85s-1.108-.806-1.448-1.207a4.975,4.975,0,0,0-1.616,4.835" transform="translate(-617.844 -815.7)" fill="#699ff0"/><path d="M1589.158,1453.2l.032-.062a.361.361,0,0,1,.488-.15l.635.335a.361.361,0,0,1,.15.488l-.032.061a.362.362,0,0,1-.487.151l-.636-.336a.362.362,0,0,1-.151-.488" transform="translate(-695.315 -821.064)" fill="#4a75cb"/><path d="M1550.368,1522.091s1.208,2.627-.192,4.649c0,0,.033-.425-1.079-.073s-1.29-.46-1.813-.516a4.977,4.977,0,0,1,3.084-4.06" transform="translate(-593.784 -860.14)" fill="#4a75cb"/><path d="M1552.942,1521.73l-.032.061a.362.362,0,0,0,.151.488l.635.335a.361.361,0,0,0,.488-.151l.033-.06a.361.361,0,0,0-.151-.488l-.635-.336a.362.362,0,0,0-.488.151" transform="translate(-596.94 -859.827)" fill="#4a75cb"/><path d="M1617.2,1465.174s1.2,1.686,2.3,1.709a8.014,8.014,0,0,0,2.768-.781s1.009-2.246.325-3.126a1.468,1.468,0,0,0-1.4.231,2.129,2.129,0,0,0-.371.355,1.171,1.171,0,0,1-.576.39c-.784.238-1.713-.322-2.061.219a3.714,3.714,0,0,1-.606.717,2.8,2.8,0,0,1-.371.285" transform="translate(-633.294 -826.686)" fill="#b64c41"/><path d="M1628.052,1482.521s-4.232-10.256-11.851-10.45c0,0-7.032.781-7.423,10.45Z" transform="translate(-628.535 -831.873)" fill="#b64c41"/><path d="M1625.447,1471.065s-3.054.68-4,.28a.944.944,0,0,1,1.144-1.1,2.7,2.7,0,0,0,1.791-.472c.477-.243,1.188.755,1.061,1.289" transform="translate(-635.694 -830.555)" fill="#963333"/><path d="M1624.332,1465.681c.195.146.795-2.065.795-2.065a2.162,2.162,0,0,0-.371.355,1.184,1.184,0,0,1-.576.391c0,.064-.038,1.176.152,1.319" transform="translate(-637.237 -827.096)" fill="#963333"/><path d="M1618.053,1466.552a12.626,12.626,0,0,0,1.647.872c.2,0-1.041-1.589-1.041-1.589a3.662,3.662,0,0,1-.606.717" transform="translate(-633.776 -828.349)" fill="#963333"/><path d="M1628.495,1483.589c.078-.067-3-4.525-3.841-4.558s-2.749.976-4.125,1.107-2.713-.26-2.973.553-.976,3.7-.537,4.162,9.786.18,11.477-1.264" transform="translate(-633.112 -835.806)" fill="#963333"/><path d="M1666.061,1466.945h0c-1.261.016-1.892-1.887-1.892-1.887l-12.274,3.715a2.412,2.412,0,0,1-.34,2.382s-2.123,1.418-1.463,3.6l2.716,8.973a3.03,3.03,0,0,0,3.766,2.016l12.947-3.92a3.029,3.029,0,0,0,2.016-3.765l-2.716-8.973a3.03,3.03,0,0,0-2.761-2.138" transform="translate(-651.81 -827.91)" fill="#caddff"/><path d="M1651.583,1467.159l.736,2.436c.267.88,3.629.641,7.508-.533s6.81-2.841,6.544-3.721l-.737-2.435Z" transform="translate(-652.724 -826.694)" fill="#963333"/><path d="M1665.612,1462.216c.267.88-2.663,2.546-6.543,3.721s-7.242,1.413-7.508.533,2.663-2.546,6.543-3.721,7.242-1.414,7.508-.533" transform="translate(-652.702 -826.004)" fill="#b64c41"/><path d="M1591.689,1475.869h0c-.881-.426-.658-1.967-.658-1.967l-9.812-1.679a1.868,1.868,0,0,1-1.061,1.536,2.668,2.668,0,0,0-2.265,1.991l-1.227,7.173a2.351,2.351,0,0,0,1.916,2.706l10.349,1.77a2.351,2.351,0,0,0,2.706-1.915l1.227-7.172a2.353,2.353,0,0,0-1.175-2.443" transform="translate(-610.369 -831.96)" fill="#b7d2f9"/><path d="M1585.1,1470.611l-.334,1.947c-.12.7,2.3,1.7,5.4,2.234s5.714.391,5.834-.313l.333-1.946Z" transform="translate(-614.963 -831.048)" fill="#c95c12"/><path d="M1596.765,1471.708c-.121.7-2.732.843-5.834.313s-5.519-1.531-5.4-2.235,2.732-.844,5.834-.314,5.518,1.532,5.4,2.236" transform="translate(-615.397 -830.223)" fill="#f1a34f"/><rect width="60.793" height="50.128" transform="translate(950.052 646.821)" fill="#d3671e"/><rect width="60.793" height="50.128" transform="translate(980.448 646.821)" fill="#f99746"/><path d="M1609.25,1487.3H1670.2v17.462l-60.949,7.6Z" transform="translate(-628.801 -840.479)" fill="#ed7d2b"/><path d="M1609.25,1487.3l12.029,13.189h59.989l-11.225-13.189Z" transform="translate(-628.801 -840.479)" fill="#f99746"/><path d="M1539.437,1567.293h9.633l-.849-2.71.849-1.938h-9.633Z" transform="translate(-589.35 -883.057)" fill="#f99746"/><path d="M1569.8,1492.967l-12.815,12.814h-17.547V1487.3H1569.8Z" transform="translate(-589.35 -840.479)" fill="#c95c12"/><path d="M1521.6,1487.3l-13.668,13.189h30.416l13.649-13.189Z" transform="translate(-571.543 -840.479)" fill="#f99746"/><path d="M994.056,958.873c-61.332-11.342-97.434,61.192-103.638,70.172-6.2-8.981-42.306-81.515-103.637-70.172-67.644,12.51-96.733,76.313-71.176,138.592,20.823,50.741,155.366,132.008,173.853,141.677v1s.334-.171.96-.5c.627.326.961.5.961.5v-1c18.487-9.669,150.9-91.863,173.852-141.677,25.619-55.6-3.532-126.083-71.175-138.592" transform="translate(-196.501 -541.184)" fill="#f77d48"/><path d="M865.272,1237.25c-1.1,2.695-8.412,1.96-14.047-1.878-5.595-3.8-13.639-7.31-18.213-10.495-3.43-2.327-6.982-11.147-9.678-16.578a30.67,30.67,0,0,0-1.878-3.349c-3.307-.979-3.1-4.409-6.165-5.512-3.634-1.266-2.532-3.307-2.532-3.307a13.047,13.047,0,0,1,5.8-.776c1.143.163,3.43,3.471,4.777,5.553,1.267.939,2.777,2.205,4.41,3.675a122.256,122.256,0,0,1,11.393,11.474c2.328,2.9,17.4,6.084,21.479,9.433,7.269,5.961,4.656,11.76,4.656,11.76" transform="translate(-353.868 -675.466)" fill="#ed985f"/><path d="M873.72,1375.806l15.8,87.705,5.472.359s4.3-38.2.616-51.38,6.357-29.859,3.537-41.3-25.424,4.611-25.424,4.611" transform="translate(-388.406 -772.544)" fill="#ed985f"/><path d="M896.479,1252.274l-13.795-2.244a31.47,31.47,0,0,1-.854-8.043c-.009-3.382.259-6.212.259-6.212l11.132-1.073,4.945-.477c-2.716,5.179-1.686,18.049-1.686,18.049" transform="translate(-392.989 -697.465)" fill="#ffb27d"/><path d="M896.889,1237.565s-7.372,6.286-15.06,5.043c-.009-3.382.26-6.212.26-6.212l11.132-1.073Z" transform="translate(-392.988 -698.087)" fill="#ed985f"/><path d="M874.931,1399.693c-2.793,7.768-5.3,15.682-4.045,22.171a44.173,44.173,0,0,1,.712,5.925c.1,1.856.108,3.742.031,5.635-.613,15.291-6.437,30.878-7.337,33.2l-.117.3-4.843-.516-2.084-92.027s22.116-8.934,23.349,2.78c.638,6.058-2.676,14.212-5.666,22.53" transform="translate(-379.098 -774.828)" fill="#ffb27d"/><path d="M900.371,1407.966s-1.412.2-3.511.432c-3.94.431-10.29.943-14.215.339-1.871-.287-2.919-3.376-3.413-7.525-1.094-9.2.539-23.589,2.025-24.227,2.158-.925,21.262-.142,21.262-.142s4.171,10.315-2.149,31.124" transform="translate(-391.32 -777.884)" fill="#35488b"/><path d="M898.033,1414.191c-3.939.432-10.291.944-14.215.339-1.871-.287-2.919-3.376-3.413-7.525l10.472-17.137,7.861-3.082a61.527,61.527,0,0,1-.706,27.406" transform="translate(-392.184 -783.678)" fill="#2c3a64"/><path d="M852.441,1374.563s-4.111,18.189-3.494,32.575a55.615,55.615,0,0,0,18.907,0s15.825-23.018,14.49-30.417-25.9-4.521-29.9-2.158" transform="translate(-374.371 -775.309)" fill="#35488b"/><path d="M873.469,1204.345s12.861,10.2,19.088,2.09,12.08-12.251,4.132-19.1-11.938-5-14.675-2.8-11.729,16.952-8.544,19.813" transform="translate(-387.884 -668.251)" fill="#ffb27d"/><path d="M915.044,1182.116a2.821,2.821,0,0,0-1.534.015v-.015c1.037-1.92.259-4.9.259-4.9.26,1.632-1.211,3.552-1.211,3.552-.086-6.048-15.048-9.792-16.431-10.177s-1.211-2.688-1.211-2.688c-2.853.576-5.881,4.224-5.794,7.777s3.027,10.369,4.929,10.465,1.038,1.632-.259,3.744.387,7.849,2.722,9.865c1.881,1.625,2.869.267,3.972-.332a3.315,3.315,0,0,1,.868-.332c4.363-.974,8.9-5.285,11.161-10.785a14.786,14.786,0,0,0,1.02-5.472,7.606,7.606,0,0,1,1.51-.721" transform="translate(-397.108 -659.989)" fill="#2c3a64"/><path d="M896.4,1590.827h-3.054c-1.023-.143-1.779-.4-2.828-.526a3.079,3.079,0,0,0-2.473.526.222.222,0,0,0-.028.027H875.047c-.327-.412-.013-1.366.294-2.069a1.779,1.779,0,0,1,1.215-.982,14.952,14.952,0,0,0,6.573-2.655c1.4-1.116,6.748-4.106,6.748-4.106l.028-.006c.118,0,.677.154,3.111,1.972,1.259.937,3.4-1.325,3.4-1.325a2.778,2.778,0,0,1,.7.843,2.559,2.559,0,0,1,.279,1.762c-.194,1.034.431,2.955.93,4.254.3.787.557,1.346.557,1.346s.146.649-2.482.94" transform="translate(-389.078 -893.45)" fill="#739cf3"/><path d="M916.57,1582.526a10.2,10.2,0,0,1-3.289,1.467c-1.378.16-3.955-2.951-3.955-2.951l.028-.006c.118,0,.677.154,3.111,1.972,1.259.937,3.4-1.325,3.4-1.325a2.784,2.784,0,0,1,.7.843" transform="translate(-408.527 -893.45)" fill="#415da5"/><path d="M896.4,1600.581h-3.054c-1.023-.142-1.779-.4-2.828-.526a3.079,3.079,0,0,0-2.473.526.3.3,0,0,0-.028.026H875.047c-.327-.412-.013-1.366.294-2.068.394-.31.505,1.345.723,1.609s10.584.1,11.182-.289a6.96,6.96,0,0,1,4.9-.529c2.179.46,5.39-.72,6.185-1.034.3.788.557,1.346.557,1.346s.146.648-2.482.939" transform="translate(-389.078 -903.203)" fill="#415da5"/><path d="M848.407,1590.827h-3.054c-1.023-.143-1.779-.4-2.828-.526a3.08,3.08,0,0,0-2.473.526.289.289,0,0,0-.028.027H827.049c-.326-.412-.013-1.366.294-2.069a1.78,1.78,0,0,1,1.215-.982,14.951,14.951,0,0,0,6.572-2.655c1.4-1.116,6.749-4.106,6.749-4.106l.028-.006c.117,0,.677.154,3.111,1.972,1.258.937,3.4-1.325,3.4-1.325a2.78,2.78,0,0,1,.7.843,2.563,2.563,0,0,1,.279,1.762c-.194,1.034.431,2.955.93,4.254.3.787.557,1.346.557,1.346s.146.649-2.482.94" transform="translate(-361.954 -893.45)" fill="#739cf3"/><path d="M868.573,1582.526a10.2,10.2,0,0,1-3.29,1.467c-1.378.16-3.955-2.951-3.955-2.951l.028-.006c.117,0,.677.154,3.111,1.972,1.258.937,3.4-1.325,3.4-1.325a2.789,2.789,0,0,1,.7.843" transform="translate(-381.403 -893.45)" fill="#415da5"/><path d="M848.407,1600.581h-3.054c-1.023-.142-1.779-.4-2.828-.526a3.079,3.079,0,0,0-2.473.526c-.02.017-.028.026-.028.026H827.049c-.326-.412-.013-1.366.294-2.068.394-.31.506,1.345.723,1.609s10.584.1,11.183-.289a6.961,6.961,0,0,1,4.9-.529c2.179.46,5.39-.72,6.185-1.034.3.788.557,1.346.557,1.346s.146.648-2.482.939" transform="translate(-361.954 -903.203)" fill="#415da5"/><path d="M889.5,1312.345a67.617,67.617,0,0,1-27.411,1.038,38.845,38.845,0,0,1-10.991-3.761l4.535-36.059.934-16.761a48.631,48.631,0,0,1,7.707-1.745s10.534,1.258,14.618.179c0,0,5.854,1.208,7.531,6.716,3.491,11.463,4.659,25.688,3.076,50.392" transform="translate(-375.624 -709.238)" fill="#fff"/><path d="M814.815,1237.25c-1.144,2.695-8.453,1.96-14.047-1.878-.49-.326-.98-.654-1.511-.981-5.472-3.429-12.577-6.614-16.742-9.514-3.92-2.7-8.045-13.925-10.82-18.742a10.079,10.079,0,0,0-.735-1.185c-3.267-1.021-3.062-4.409-6.125-5.512-3.634-1.266-2.572-3.307-2.572-3.307a13.2,13.2,0,0,1,5.8-.776c1.184.163,3.471,3.471,4.777,5.553.9.694,2,1.552,3.145,2.491a126.145,126.145,0,0,1,12.658,12.658c1.674,2.083,9.922,4.329,15.966,6.615a23.047,23.047,0,0,1,5.553,2.818c7.269,5.961,4.655,11.76,4.655,11.76" transform="translate(-325.339 -675.466)" fill="#ffb27d"/><path d="M862.466,1270.441c-1.229,5.593-15.495-1.194-16.026-1.521.777-8.408.674-13.019,3.041-14.479,4.642-.726,11.637-.371,13.029.131,11.389,4.1-.044,15.869-.044,15.869" transform="translate(-372.99 -708.656)" fill="#fff"/><path d="M827.745,1204.583a6.248,6.248,0,0,1-4.41,3.716,30.656,30.656,0,0,0-1.878-3.349c-3.307-.98-3.1-4.41-6.165-5.513-3.634-1.266-2.532-3.308-2.532-3.308a13.048,13.048,0,0,1,5.8-.776c1.143.164,3.43,3.471,4.777,5.553,1.266.939,2.777,2.206,4.41,3.676" transform="translate(-353.868 -675.465)" fill="#ffa412"/><path d="M814.218,1191.807c-1.236.956-4.537,4.3-4.537,4.3l-7.611-9.839s3.891-2.458,5.191-3.454c1.181-.9,4.648-4.157,4.648-4.157l7.61,9.839s-4.065,2.355-5.3,3.312" transform="translate(-347.916 -666.064)" fill="#fff"/><path d="M817.142,1195.586c-1.236.956-4.537,4.3-4.537,4.3l-5.361-6.931s3.891-2.458,5.191-3.453c1.18-.9,4.648-4.158,4.648-4.158l5.36,6.931s-4.065,2.355-5.3,3.311" transform="translate(-350.84 -669.842)" fill="#fff"/><rect width="0.995" height="12.439" transform="matrix(0.791, -0.612, 0.612, 0.791, 463.993, 512.593)" fill="#fff"/><rect width="0.995" height="12.439" transform="matrix(0.791, -0.612, 0.612, 0.791, 453.367, 520.812)" fill="#fff"/><g transform="translate(430.253 509.441)" opacity="0.5"><g clip-path="url(#h)"><path d="M768.566,1183.474l-10.151,12.438a3.468,3.468,0,0,1-4.864.492l-5.1-4.161a3.665,3.665,0,0,1-.52-5.141l10.027-12.287a6.646,6.646,0,0,1,6.906-2.19.754.754,0,0,0,.849-.32,2.464,2.464,0,0,1,.17-.239l.537-.657,3.788,3.092-.537.657a2.113,2.113,0,0,1-.226.237.664.664,0,0,0-.156.8,6.651,6.651,0,0,1-.724,7.279" transform="translate(-747.113 -1171.409)" fill="#ebf3fa"/></g></g><g transform="translate(432.148 510.987)" opacity="0.3"><g clip-path="url(#i)"><path d="M771.027,1185.483l-10.151,12.439a3.468,3.468,0,0,1-4.864.492l-3.2-2.615a3.666,3.666,0,0,1-.52-5.142l10.027-12.286a6.647,6.647,0,0,1,6.906-2.19.8.8,0,0,0,.357.014.731.731,0,0,0,.491-.334,2.289,2.289,0,0,1,.171-.239l.536-.657,1.894,1.546-.537.657a2.113,2.113,0,0,1-.226.237.664.664,0,0,0-.156.8,6.651,6.651,0,0,1-.724,7.279" transform="translate(-751.469 -1174.964)" fill="#ebf3fa"/></g></g><g transform="translate(432.148 511.966)" opacity="0.3"><g clip-path="url(#j)"><path d="M768.926,1185.041l-10.151,12.438a3.467,3.467,0,0,1-4.864.492l-1.1-.9a3.665,3.665,0,0,1-.52-5.141l10.027-12.286a6.646,6.646,0,0,1,6.906-2.191.793.793,0,0,0,.358.015.615.615,0,0,0,.072.3,6.649,6.649,0,0,1-.724,7.279" transform="translate(-751.469 -1177.215)" fill="#ebf3fa"/></g></g><rect width="9.424" height="13.691" transform="translate(434.27 521.216) rotate(-50.783)" fill="#ebf3fa"/><rect width="1.287" height="5.436" transform="translate(449.386 509.222) rotate(-50.893)" fill="#ebf3fa"/><path d="M775.982,1203.4a7.312,7.312,0,0,1-4.287,2.736,10.062,10.062,0,0,0-.736-1.185c-3.267-1.021-3.063-4.409-6.125-5.512-3.634-1.266-2.572-3.307-2.572-3.307a13.2,13.2,0,0,1,5.8-.776c1.184.163,3.47,3.47,4.777,5.553.9.694,2,1.552,3.144,2.492" transform="translate(-325.339 -675.466)" fill="#ffa412"/><path d="M596.18,1101.028l-.736,4.941s-.326,0-.9-.041c-1.8-.123-6.166-.367-11.107-.9-7.432-.734-16.252-2.041-19.764-4.205-5.349-3.266-14.129-13.271-19.845-23.276a6.546,6.546,0,0,1-.408-.735c-2.981-5.309-5.063-10.576-5.227-14.781a21.112,21.112,0,0,1,.694-6.7,17.076,17.076,0,0,1,3.022-6.043,3.048,3.048,0,0,1,.572-.695,14.1,14.1,0,0,1,3.879-3.307c.98-.408,2.042.082,3.144,1.266v.041a18.725,18.725,0,0,1,2.818,4.165c.041.04.082.081.082.122.2.368.408.776.654,1.226a1.033,1.033,0,0,1,.163.286q.673,1.408,1.347,2.94c5.022,10.943,10.372,27.522,14.823,32.462,1.919,2.123,10.7,6.288,17.681,9.392,5.022,2.205,9.106,3.838,9.106,3.838" transform="translate(-198.784 -590.618)" fill="#ffb27d"/><path d="M468.91,912.33a10.648,10.648,0,0,0-10.03-8.323c-8.512-.427-18.542,6.357-17.689,15.236s-8.75,12.508-10.457,19.977,6.337,7.488,8.065,13.231-3.059,10.937,7.328,11.412,22.319-1.322,24.729-7.144,3.754-29.385,3.754-29.385Z" transform="translate(-137.939 -510.847)" fill="#2c3a64"/><path d="M473.936,1039.827a31.532,31.532,0,0,1-2.288,7.3c-.817,1.859-1.748,3.626-2.706,5.466-2.809,5.411-9.042,7.892-9.646,18.473a48.468,48.468,0,0,0,1.751,14.263c7.377,29.648-50.9,4.391-47.6-3.289,6.551-15.259,15.414-23.892,15.713-36.652a.5.5,0,0,0-.006-.1c-.031-.62-.052-2.278-.065-4.47-.031-5.361-.012-13.91.04-18.234,0-.1,0-.2,0-.3.024-1.853.018-3.194-.04-3.549,4.782-17.393,14.274-17.112,17.511-16.937,1.2.064,2.457.191,3.49.317,2.077-1.082,5.8-6.347,7.96-15.155l.728.342,12.238,5.753s-1.3,3.979-2.26,7.793c-.749,2.981-1.286,5.86-.835,6.668.965.391,1.542.638,1.542.638a.052.052,0,0,0,0,.012c.2.5,6.983,17.773,4.473,31.654" transform="translate(-128.225 -557.738)" fill="#ffb27d"/><path d="M490.923,1365.73l-4.477,2.334s-24.351-33.591-27.24-62.189a43.62,43.62,0,0,1,.768-14.618s-.487-2.821-1.3-7.491q-.243-1.4-.521-3c-.691-3.944-1.541-8.789-2.484-14.141-.931-5.276-1.951-11.051-3.005-16.945-2.074-11.6-4.259-23.676-6.1-33.425l1.456-.469,6.663-2.152,9.066-2.923,3.252-10.326,2.121-.559,9.591-2.523a19.072,19.072,0,0,1,1.067,3.342c.862,3.333,2.13,9.651,3.38,21q.25,2.33.508,4.951a202.692,202.692,0,0,1,0,52.82q-.807,6.306-2.053,13a58.042,58.042,0,0,0-.452,12.835c1.182,23.377,9.761,60.469,9.761,60.469" transform="translate(-147.015 -676.603)" fill="#35488b"/><path d="M488.013,1224.289c-6.257,14.9-19.826,46.9-25,59.116-.691-3.945-1.541-8.788-2.484-14.141-.931-5.276-1.951-11.051-3.006-16.946l-2.364-24.82,4.379-11.226,5.579-14.3s4.17.209,8.861.495c3.884.239,8.131.538,10.658.819.862,3.334,2.13,9.651,3.38,21" transform="translate(-151.874 -679.238)" fill="#2c3a64"/><path d="M664.659,1181.895c-2.124,1.878-11.1-7.485-11.874-8.343-1.8-.123-6.166-.367-11.107-.9a54.265,54.265,0,0,0,3.634-7.839c5.023,2.2,9.106,3.838,9.106,3.838s7.672,1.263,8.837,2.545c3.228,3.557,3.731,8.7,1.4,10.7" transform="translate(-257.278 -658.241)" fill="#f99746"/><path d="M647.956,1186.191c-1.531,0-31.646-1.531-31.646-1.531l20.928,22.318,45.938,9.782Z" transform="translate(-242.942 -669.456)" fill="#699ff0"/><path d="M701.829,1228.26c-1,3.052-2.756,12.547-2.756,12.547l-24.3-7.951s3.781-8.67,4.844-11.864c.964-2.9,3.108-12.432,3.108-12.432l24.3,7.951s-4.2,8.7-5.2,11.75" transform="translate(-275.982 -682.961)" fill="#f99746"/><path d="M711.162,1231.313c-1,3.052-2.756,12.547-2.756,12.547l-17.114-5.6s3.781-8.67,4.843-11.864c.964-2.9,3.108-12.433,3.108-12.433l17.114,5.6s-4.2,8.7-5.2,11.75" transform="translate(-285.315 -686.015)" fill="#ed7d2b"/><rect width="2.045" height="25.564" transform="translate(406.745 525.597) rotate(-71.879)" fill="#ed7d2b"/><rect width="2.045" height="25.564" transform="translate(398.158 551.838) rotate(-71.879)" fill="#dc8d39"/><path d="M731.262,1232.6l8.771,13.446a3.467,3.467,0,0,1-1.006,4.784l-5.512,3.6a3.666,3.666,0,0,1-5.057-1.064l-8.665-13.282a6.646,6.646,0,0,1,.008-7.245.755.755,0,0,0-.048-.906,2.371,2.371,0,0,1-.177-.235l-.463-.711,4.1-2.671.463.71a2.276,2.276,0,0,1,.158.288.663.663,0,0,0,.714.392,6.649,6.649,0,0,1,6.716,2.9" transform="translate(-300.817 -694.126)" fill="#ecf2fd"/><path d="M733.923,1232.6l8.772,13.446a3.467,3.467,0,0,1-1.006,4.784l-3.464,2.26a3.666,3.666,0,0,1-5.057-1.064l-8.665-13.283a6.647,6.647,0,0,1,.008-7.245.806.806,0,0,0,.123-.337.736.736,0,0,0-.17-.569,2.2,2.2,0,0,1-.176-.235l-.464-.709,2.048-1.337.463.71a2.3,2.3,0,0,1,.158.288.663.663,0,0,0,.714.392,6.649,6.649,0,0,1,6.716,2.9" transform="translate(-303.478 -694.126)" fill="#e5eaf5"/><g transform="translate(419.954 536.961)" opacity="0.3"><g clip-path="url(#k)"><path d="M731.652,1237.687l8.772,13.446a3.468,3.468,0,0,1-1.007,4.784l-1.193.778a3.666,3.666,0,0,1-5.057-1.064l-8.664-13.283a6.646,6.646,0,0,1,.008-7.245.8.8,0,0,0,.123-.336.6.6,0,0,0,.3.021,6.652,6.652,0,0,1,6.717,2.9" transform="translate(-723.432 -1234.688)" fill="#ced4ea"/></g></g><rect width="13.692" height="9.424" transform="matrix(0.838, -0.546, 0.546, 0.838, 419.729, 547.11)" fill="#ebf3fa"/><rect width="5.436" height="1.287" transform="matrix(0.836, -0.548, 0.548, 0.836, 417.331, 535.884)" fill="#ebf3fa"/><path d="M660.447,1216.08,663.7,1231.8a3.467,3.467,0,0,1-2.684,4.085l-6.444,1.334a3.666,3.666,0,0,1-4.319-2.837l-3.216-15.529a6.648,6.648,0,0,1,2.654-6.742.755.755,0,0,0,.286-.86,2.3,2.3,0,0,1-.079-.283l-.172-.831,4.788-.991.172.83a2.24,2.24,0,0,1,.042.326.663.663,0,0,0,.522.625,6.651,6.651,0,0,1,5.194,5.151" transform="translate(-260.23 -683.294)" fill="#ecf2fd"/><path d="M663.559,1216.08l3.255,15.721a3.467,3.467,0,0,1-2.684,4.085l-4.05.839a3.666,3.666,0,0,1-4.319-2.838l-3.215-15.53a6.646,6.646,0,0,1,2.653-6.741.8.8,0,0,0,.237-.269.731.731,0,0,0,.05-.591,2.34,2.34,0,0,1-.079-.283l-.172-.831,2.394-.5.172.83a2.216,2.216,0,0,1,.042.326.663.663,0,0,0,.522.625,6.651,6.651,0,0,1,5.194,5.151" transform="translate(-263.341 -683.294)" fill="#e5eaf5"/><g transform="translate(389.066 528.054)" opacity="0.3"><g clip-path="url(#l)"><path d="M660.9,1219.49l3.255,15.721a3.466,3.466,0,0,1-2.684,4.086l-1.395.289a3.666,3.666,0,0,1-4.319-2.837l-3.215-15.53a6.645,6.645,0,0,1,2.653-6.741.8.8,0,0,0,.237-.269.61.61,0,0,0,.274.131,6.649,6.649,0,0,1,5.194,5.151" transform="translate(-652.408 -1214.208)" fill="#ced4ea"/></g></g><rect width="13.692" height="9.424" transform="translate(387.088 536.908) rotate(-11.699)" fill="#ed7d2b"/><rect width="5.436" height="1.286" transform="matrix(0.979, -0.205, 0.205, 0.979, 388.956, 525.582)" fill="#ed7d2b"/><path d="M674.338,1305.962l-5.186,32.994-1.511,9.514-2.981,19.07H624.316s-5.309-3.267-12.209-7.554c-11.76-7.391-28.011-17.682-29.645-19.518-1.062-1.185-2.9-10.086-4.7-20.131-2.532-14.333-4.982-31.075-4.982-31.075l14.782-27.6-12.74-30.5,16.824-46.494,20.907,22.321,45.979,9.759Z" transform="translate(-218.346 -669.456)" fill="#aac9f5"/><path d="M662.422,1449.615l-4.594,26.031,34.454-23.99Z" transform="translate(-266.405 -819.183)" fill="#aac9f5"/><path d="M715.751,1530.8l-4.492,28.583H670.916s-5.308-3.267-12.209-7.554l-3.348-9.841,38.792-17.6,4.655-.245Z" transform="translate(-265.009 -861.299)" fill="#aac9f5"/><path d="M771.462,1463.582l-5.186,32.994-1.511,9.513c-2.613-1.306-20.825-10.7-20.09-15.924.775-5.595,26.787-26.583,26.787-26.583" transform="translate(-315.47 -827.076)" fill="#c3d9fa"/><path d="M595.037,1542.922s24.5,7.4,26.287,9.7,6.89,11.995,6.89,11.995Z" transform="translate(-230.921 -871.911)" fill="#c3d9fa"/><path d="M668.391,1415.458s19.4-5.615,21.183-8.166,14.292-18.12,14.292-18.12-3.318,25.265-5.615,28.328-29.86-2.041-29.86-2.041" transform="translate(-272.374 -785.027)" fill="#c3d9fa"/><path d="M598.469,1399.568l-20.7,38.751c-2.532-14.333-4.982-31.075-4.982-31.075l11.72-13.8Z" transform="translate(-218.346 -787.44)" fill="#9dc1ed"/><path d="M598.469,1381.634s-11.229-4.411-25.685,7.676l14.782-27.6Z" transform="translate(-218.346 -769.506)" fill="#c3d9fa"/><path d="M577.479,1291.57l34.178,8.928,14.291,21.778Z" transform="translate(-220.999 -729.871)" fill="#c3d9fa"/><path d="M656.5,1441.49l-1.021,24.245,38.8-17.62,26.787-26.583-24.5-32.361-11.74,31.136Z" transform="translate(-265.078 -785.026)" fill="#9dc1ed"/><path d="M532.4,926.286s-3.284-11.818-12.788-12.956-15.479,4.553-16.76,10.1-.355,20.061,5.514,21.84S532.4,926.286,532.4,926.286" transform="translate(-178.541 -516.043)" fill="#2c3a64"/><path d="M444.68,1196.152l-.589-5.05c-9.865,2.62-36.223-7.322-36.223-7.322s-9.557,8.4-8.3,28.538c.612,9.828,1.01,26.507,1.01,26.507h0c-.024,14.3,1.039,28.466,1.889,37.446.422,4.479.792,7.666.943,8.94a.026.026,0,0,1,0,.012,1.762,1.762,0,0,1-.287,1.094,42.373,42.373,0,0,0-4.312,9.07c-6.739,22.26-1.435,56.46-1.435,56.46l6.635,10.35s7.531-41.882,13.65-60.385a36.667,36.667,0,0,1,2.947-7.078c2.66-4.295,5.13-11.311,7.371-19.656,4.212-15.687,16.7-78.925,16.7-78.925" transform="translate(-118.103 -668.959)" fill="#35488b"/><path d="M530.1,993.507s-1.3,3.978-2.26,7.793c-7.153-2-9.325-9.515-9.979-13.546Z" transform="translate(-187.307 -558.184)" fill="#ed985f"/><path d="M530.286,970.225s-17.114-3.961-14.483-14.58,2.193-18.283,13.232-16.2,12.149,6.657,12.133,10.414-6.361,21.126-10.881,20.37" transform="translate(-185.99 -530.688)" fill="#ffb27d"/><path d="M536.541,941.311c-1.84-3.849-4.005-3.643-5.36-2.961a12.276,12.276,0,0,0-15.928-1.362,20.9,20.9,0,0,1-9.616,10.33s2.629,2.692,10.249,2.633a12.539,12.539,0,0,0,6.8-2.559,40.97,40.97,0,0,1-8.923,6.656c9.539-1.825,15.935-12.869,16.59-14.042.808,1.193,2.354,3.734,2.484,5.879.177,2.915-.826,8.575.843,8.79,0,0,5.623-7.592,2.863-13.364" transform="translate(-180.401 -528.174)" fill="#2c3a64"/><path d="M561.5,1047.75s4.121,7.188,4.737,9.038c0,0-5.344-.205-7.5,3.9,0,0,.185-11.909,2.764-12.942" transform="translate(-210.404 -592.087)" fill="#f99746"/><path d="M472.823,1053.67c-.124.337-.269.67-.423,1.006-4.294,9.25-8.2,16.967-8.2,16.967-.107-.063-.624,34.271-5.817,35.623a131.461,131.461,0,0,1-17.287,2.275,128.337,128.337,0,0,1-18.192,0c-9.215-.806-14.456-2.894-17.973-6.078-4.17-5.553,15.148-23.859,17.773-37.031-.034-.687.085-2.9.273-5.779.333-5.263.87-12.771,1.033-17.359.03-.688.047-1.31.051-1.853,0-.1,0-.2,0-.294.931-.692,1.84-1.332,2.676-1.942,2.689-1.959,4.7-3.632,4.827-5.783a16.4,16.4,0,0,0-.068-2.582c-.038-.41-.09-.82-.154-1.225a35.107,35.107,0,0,0-2.455-8.208c4.546-1.844,12.643-.747,12.643-.747s-.013.452-.017,1.186c-.03,2.958,0,10.547.948,11.982,1.187,1.788,22.865,9.63,24.009,7.2,1.127-2.386-1.959-13.574-2.074-14l0-.013c7.261,2.847,9.856,5.237,9.856,5.237-4.375,2.843,1.959,12.442-1.426,21.414" transform="translate(-123.158 -576.595)" fill="#f99746"/><path d="M467.012,1116.807c-5.694-2.637-14.3-16.433-19.827-26.322.333-5.263.871-12.771,1.033-17.359Z" transform="translate(-147.37 -606.428)" fill="#ed7d2b"/><path d="M509.474,1096.228l-1.43,5.227s-1.8-.327-4.655-.857c-.857-.164-1.347-.286-1.347-.286-2.287-.449-5.022-1.062-8-1.715H494c-5.1-1.225-10.821-2.695-15.639-4.329a43.011,43.011,0,0,1-8.331-3.715,5.1,5.1,0,0,1-.571-.408c-4.777-3.471-10.453-13.679-14.863-24.623-.613-1.511-1.184-3.022-1.756-4.492a111.748,111.748,0,0,1-4.655-15.517,43.78,43.78,0,0,1-1.1-7.391,17.954,17.954,0,0,1-.041-2.083c.082-11.841,5.962-13.475,5.962-13.475.122-.041.244-.081.408-.122,1.021-.163,2.083.53,3.186,1.878a37.162,37.162,0,0,1,4.369,7.718c2.328,5.268,4.778,12.087,7.064,18.866,1.266,3.715,2.49,7.431,3.715,10.861.694,2.083,1.389,4.042,2.041,5.84a56.32,56.32,0,0,0,3.43,7.962c.654,1.144,2.532,2.736,5.023,4.533a182.749,182.749,0,0,0,16.171,10.046c2.287,1.307,4.45,2.491,6.247,3.471,2.9,1.593,4.819,2.613,4.819,2.613" transform="translate(-147.277 -577.772)" fill="#ffb27d"/><path d="M460.952,1032.08c-7.861-2.167-13.925,3.97-13.925,3.97.1-11.822,5.984-13.44,5.984-13.44,2.368-.981,5.111,3.119,7.941,9.47" transform="translate(-147.28 -577.799)" fill="#f99746"/><path d="M588.06,1189.57c-2.614,1.1-6.289,4.94-12.169,2.613a91.314,91.314,0,0,0-10.821-3.308c-.857-.163-1.348-.286-1.348-.286-2.286-.449-5.023-1.061-8-1.714a28.178,28.178,0,0,0,4.369-8.453c2.286,1.307,4.451,2.492,6.247,3.472,5.919,2.259,9.188,1.959,12.782,1.143,4.042-.939,10.82,3.92,10.82,3.92s.735,1.552-1.878,2.614" transform="translate(-208.702 -665.93)" fill="#f99746"/><path d="M422.085,1579.7h-26.41s-.988-4.212.746-7.079c1.535-2.536.882-5.457.57-8.919,1.2.49,2.721,1.749,4.4,2.039a7.543,7.543,0,0,0,4.9-.926c1.137,1.3,4.314,7.994,5.835,9.088,1.726,1.24,9.422.8,9.953,5.8" transform="translate(-118.102 -883.654)" fill="#233862"/><path d="M544.574,1579.7h-26.41s-.988-4.212.746-7.079c1.535-2.536.882-5.457.57-8.919,1.2.49,2.72,1.749,4.4,2.039,1.85.32,4.24-.9,5.461-1.609a14.95,14.95,0,0,0,5.278,9.771c1.726,1.24,9.422.8,9.953,5.8" transform="translate(-187.322 -883.654)" fill="#233862"/></g></g></g><path d="M1614.648,1043.971H2.124A2.131,2.131,0,0,1,0,1041.846v-1.521a2.131,2.131,0,0,1,2.124-2.124H1614.648a2.131,2.131,0,0,1,2.125,2.124v1.521a2.131,2.131,0,0,1-2.125,2.125" transform="translate(30.613 -344.894)" fill="#252525"/></g></svg>